<svg width="1522" height="321" viewBox="0 0 1522 321" fill="none" xmlns="http://www.w3.org/2000/svg">
<rect width="1522" height="321" rx="20" fill="url(#paint0_linear_116_2441)"/>
<path d="M13.2429 94.1392C12.5601 94.1392 11.9503 94.0215 11.4134 93.7862C10.8797 93.5509 10.4571 93.2244 10.1456 92.8068C9.83736 92.3859 9.67164 91.8987 9.64844 91.3452H11.2095C11.2294 91.6468 11.3305 91.9086 11.5128 92.1307C11.6984 92.3494 11.9403 92.5185 12.2386 92.6378C12.5369 92.7571 12.8684 92.8168 13.233 92.8168C13.634 92.8168 13.9886 92.7472 14.2969 92.608C14.6084 92.4687 14.852 92.2749 15.0277 92.0263C15.2034 91.7744 15.2912 91.4844 15.2912 91.1562C15.2912 90.8149 15.2034 90.5149 15.0277 90.2564C14.8554 89.9946 14.6018 89.7891 14.267 89.6399C13.9356 89.4908 13.5346 89.4162 13.0639 89.4162H12.2038V88.1634H13.0639C13.4418 88.1634 13.7732 88.0954 14.0582 87.9595C14.3466 87.8236 14.572 87.6347 14.7344 87.3928C14.8968 87.1475 14.978 86.8608 14.978 86.5327C14.978 86.2178 14.9067 85.9444 14.7642 85.7124C14.625 85.477 14.4261 85.2931 14.1676 85.1605C13.9124 85.0279 13.6108 84.9616 13.2628 84.9616C12.9313 84.9616 12.6214 85.023 12.3331 85.1456C12.0481 85.2649 11.8161 85.4373 11.6371 85.6626C11.4581 85.8847 11.362 86.1515 11.3487 86.4631H9.86222C9.87879 85.9129 10.0412 85.429 10.3494 85.0114C10.661 84.5937 11.072 84.2673 11.5824 84.032C12.0928 83.7966 12.6596 83.679 13.2827 83.679C13.9356 83.679 14.4991 83.8066 14.973 84.0618C15.4503 84.3137 15.8182 84.6501 16.0767 85.071C16.3385 85.492 16.4678 85.9527 16.4645 86.4531C16.4678 87.0232 16.3087 87.5071 15.9872 87.9048C15.669 88.3026 15.2448 88.5694 14.7145 88.7053V88.7848C15.3906 88.8875 15.9143 89.156 16.2855 89.5902C16.66 90.0244 16.8456 90.563 16.8423 91.206C16.8456 91.7661 16.6899 92.2682 16.375 92.7124C16.0634 93.1565 15.6375 93.5062 15.0973 93.7614C14.5571 94.0133 13.9389 94.1392 13.2429 94.1392ZM22.2663 94.169C21.4808 94.1657 20.8097 93.9586 20.2528 93.5476C19.696 93.1366 19.2701 92.5384 18.9751 91.7528C18.6802 90.9673 18.5327 90.0211 18.5327 88.9141C18.5327 87.8104 18.6802 86.8674 18.9751 86.0852C19.2734 85.303 19.701 84.7064 20.2578 84.2955C20.8179 83.8845 21.4875 83.679 22.2663 83.679C23.0452 83.679 23.7131 83.8861 24.2699 84.3004C24.8267 84.7114 25.2526 85.308 25.5476 86.0902C25.8459 86.8691 25.995 87.8104 25.995 88.9141C25.995 90.0244 25.8475 90.9723 25.5526 91.7578C25.2576 92.54 24.8317 93.1383 24.2749 93.5526C23.718 93.9635 23.0485 94.169 22.2663 94.169ZM22.2663 92.8416C22.9557 92.8416 23.4943 92.5052 23.8821 91.8324C24.2732 91.1596 24.4688 90.1868 24.4688 88.9141C24.4688 88.0689 24.3793 87.3546 24.2003 86.7713C24.0246 86.1847 23.7711 85.7405 23.4396 85.4389C23.1115 85.134 22.7204 84.9815 22.2663 84.9815C21.5803 84.9815 21.0417 85.3196 20.6506 85.9957C20.2595 86.6719 20.0623 87.6446 20.0589 88.9141C20.0589 89.7625 20.1468 90.4801 20.3224 91.0668C20.5014 91.6501 20.755 92.0926 21.0831 92.3942C21.4112 92.6925 21.8056 92.8416 22.2663 92.8416ZM31.3034 94.169C30.5179 94.1657 29.8468 93.9586 29.29 93.5476C28.7331 93.1366 28.3072 92.5384 28.0123 91.7528C27.7173 90.9673 27.5698 90.0211 27.5698 88.9141C27.5698 87.8104 27.7173 86.8674 28.0123 86.0852C28.3105 85.303 28.7381 84.7064 29.2949 84.2955C29.8551 83.8845 30.5246 83.679 31.3034 83.679C32.0823 83.679 32.7502 83.8861 33.307 84.3004C33.8638 84.7114 34.2897 85.308 34.5847 86.0902C34.883 86.8691 35.0321 87.8104 35.0321 88.9141C35.0321 90.0244 34.8846 90.9723 34.5897 91.7578C34.2947 92.54 33.8688 93.1383 33.312 93.5526C32.7551 93.9635 32.0856 94.169 31.3034 94.169ZM31.3034 92.8416C31.9928 92.8416 32.5314 92.5052 32.9192 91.8324C33.3103 91.1596 33.5059 90.1868 33.5059 88.9141C33.5059 88.0689 33.4164 87.3546 33.2374 86.7713C33.0617 86.1847 32.8082 85.7405 32.4767 85.4389C32.1486 85.134 31.7575 84.9815 31.3034 84.9815C30.6174 84.9815 30.0788 85.3196 29.6877 85.9957C29.2966 86.6719 29.0994 87.6446 29.0961 88.9141C29.0961 89.7625 29.1839 90.4801 29.3596 91.0668C29.5385 91.6501 29.7921 92.0926 30.1202 92.3942C30.4483 92.6925 30.8427 92.8416 31.3034 92.8416ZM40.3406 94.169C39.555 94.1657 38.8839 93.9586 38.3271 93.5476C37.7702 93.1366 37.3443 92.5384 37.0494 91.7528C36.7544 90.9673 36.6069 90.0211 36.6069 88.9141C36.6069 87.8104 36.7544 86.8674 37.0494 86.0852C37.3477 85.303 37.7752 84.7064 38.332 84.2955C38.8922 83.8845 39.5617 83.679 40.3406 83.679C41.1194 83.679 41.7873 83.8861 42.3441 84.3004C42.9009 84.7114 43.3268 85.308 43.6218 86.0902C43.9201 86.8691 44.0692 87.8104 44.0692 88.9141C44.0692 90.0244 43.9218 90.9723 43.6268 91.7578C43.3318 92.54 42.9059 93.1383 42.3491 93.5526C41.7923 93.9635 41.1228 94.169 40.3406 94.169ZM40.3406 92.8416C41.0299 92.8416 41.5685 92.5052 41.9563 91.8324C42.3474 91.1596 42.543 90.1868 42.543 88.9141C42.543 88.0689 42.4535 87.3546 42.2745 86.7713C42.0988 86.1847 41.8453 85.7405 41.5138 85.4389C41.1857 85.134 40.7946 84.9815 40.3406 84.9815C39.6545 84.9815 39.1159 85.3196 38.7248 85.9957C38.3337 86.6719 38.1365 87.6446 38.1332 88.9141C38.1332 89.7625 38.221 90.4801 38.3967 91.0668C38.5756 91.6501 38.8292 92.0926 39.1573 92.3942C39.4854 92.6925 39.8799 92.8416 40.3406 92.8416Z" fill="#F9F9F9"/>
<path d="M9.69815 127V125.886L13.1435 122.317C13.5114 121.929 13.8146 121.589 14.0533 121.298C14.2952 121.003 14.4759 120.723 14.5952 120.457C14.7145 120.192 14.7741 119.911 14.7741 119.612C14.7741 119.274 14.6946 118.982 14.5355 118.737C14.3764 118.489 14.1593 118.298 13.8842 118.165C13.6091 118.03 13.2992 117.962 12.9545 117.962C12.59 117.962 12.2718 118.036 12 118.185C11.7282 118.335 11.5194 118.545 11.3736 118.817C11.2277 119.089 11.1548 119.407 11.1548 119.771H9.68821C9.68821 119.152 9.83073 118.61 10.1158 118.146C10.4008 117.682 10.7919 117.322 11.2891 117.067C11.7862 116.808 12.3513 116.679 12.9844 116.679C13.6241 116.679 14.1875 116.807 14.6747 117.062C15.1652 117.314 15.5481 117.658 15.8232 118.096C16.0982 118.53 16.2358 119.021 16.2358 119.567C16.2358 119.945 16.1645 120.315 16.022 120.676C15.8828 121.037 15.6392 121.44 15.2912 121.884C14.9432 122.325 14.4593 122.86 13.8395 123.49L11.8161 125.608V125.683H16.3999V127H9.69815ZM21.6449 127.139C21.0218 127.139 20.4616 127.02 19.9645 126.781C19.4706 126.539 19.0762 126.208 18.7812 125.787C18.4863 125.366 18.3288 124.885 18.3089 124.345H19.8004C19.8369 124.783 20.0308 125.142 20.3821 125.424C20.7334 125.706 21.1544 125.847 21.6449 125.847C22.036 125.847 22.3823 125.757 22.6839 125.578C22.9889 125.396 23.2275 125.146 23.3999 124.827C23.5755 124.509 23.6634 124.146 23.6634 123.739C23.6634 123.324 23.5739 122.955 23.3949 122.63C23.2159 122.305 22.969 122.05 22.6541 121.864C22.3426 121.679 21.9846 121.584 21.5803 121.581C21.272 121.581 20.9621 121.634 20.6506 121.74C20.339 121.846 20.0871 121.985 19.8949 122.158L18.4879 121.949L19.0597 116.818H24.6577V118.136H20.3374L20.0142 120.984H20.0739C20.2727 120.792 20.5362 120.631 20.8643 120.502C21.1958 120.373 21.5504 120.308 21.9283 120.308C22.5481 120.308 23.0999 120.456 23.5838 120.751C24.071 121.046 24.4538 121.448 24.7322 121.959C25.014 122.466 25.1532 123.049 25.1499 123.709C25.1532 124.368 25.004 124.957 24.7024 125.474C24.4041 125.991 23.9898 126.398 23.4595 126.697C22.9325 126.992 22.3277 127.139 21.6449 127.139ZM30.5105 127.169C29.725 127.166 29.0538 126.959 28.497 126.548C27.9402 126.137 27.5143 125.538 27.2193 124.753C26.9243 123.967 26.7768 123.021 26.7768 121.914C26.7768 120.81 26.9243 119.867 27.2193 119.085C27.5176 118.303 27.9451 117.706 28.502 117.295C29.0621 116.884 29.7316 116.679 30.5105 116.679C31.2894 116.679 31.9572 116.886 32.514 117.3C33.0708 117.711 33.4967 118.308 33.7917 119.09C34.09 119.869 34.2392 120.81 34.2392 121.914C34.2392 123.024 34.0917 123.972 33.7967 124.758C33.5017 125.54 33.0758 126.138 32.519 126.553C31.9622 126.964 31.2927 127.169 30.5105 127.169ZM30.5105 125.842C31.1999 125.842 31.7385 125.505 32.1262 124.832C32.5173 124.16 32.7129 123.187 32.7129 121.914C32.7129 121.069 32.6234 120.355 32.4444 119.771C32.2688 119.185 32.0152 118.741 31.6838 118.439C31.3556 118.134 30.9645 117.982 30.5105 117.982C29.8244 117.982 29.2858 118.32 28.8947 118.996C28.5036 119.672 28.3064 120.645 28.3031 121.914C28.3031 122.763 28.3909 123.48 28.5666 124.067C28.7456 124.65 28.9991 125.093 29.3272 125.394C29.6554 125.692 30.0498 125.842 30.5105 125.842ZM39.5476 127.169C38.7621 127.166 38.0909 126.959 37.5341 126.548C36.9773 126.137 36.5514 125.538 36.2564 124.753C35.9614 123.967 35.8139 123.021 35.8139 121.914C35.8139 120.81 35.9614 119.867 36.2564 119.085C36.5547 118.303 36.9822 117.706 37.5391 117.295C38.0992 116.884 38.7687 116.679 39.5476 116.679C40.3265 116.679 40.9943 116.886 41.5511 117.3C42.108 117.711 42.5339 118.308 42.8288 119.09C43.1271 119.869 43.2763 120.81 43.2763 121.914C43.2763 123.024 43.1288 123.972 42.8338 124.758C42.5388 125.54 42.1129 126.138 41.5561 126.553C40.9993 126.964 40.3298 127.169 39.5476 127.169ZM39.5476 125.842C40.237 125.842 40.7756 125.505 41.1634 124.832C41.5545 124.16 41.75 123.187 41.75 121.914C41.75 121.069 41.6605 120.355 41.4815 119.771C41.3059 119.185 41.0523 118.741 40.7209 118.439C40.3928 118.134 40.0017 117.982 39.5476 117.982C38.8615 117.982 38.3229 118.32 37.9318 118.996C37.5407 119.672 37.3435 120.645 37.3402 121.914C37.3402 122.763 37.428 123.48 37.6037 124.067C37.7827 124.65 38.0362 125.093 38.3643 125.394C38.6925 125.692 39.0869 125.842 39.5476 125.842Z" fill="#F9F9F9"/>
<path d="M9.69815 160V158.886L13.1435 155.317C13.5114 154.929 13.8146 154.589 14.0533 154.298C14.2952 154.003 14.4759 153.723 14.5952 153.457C14.7145 153.192 14.7741 152.911 14.7741 152.612C14.7741 152.274 14.6946 151.982 14.5355 151.737C14.3764 151.489 14.1593 151.298 13.8842 151.165C13.6091 151.03 13.2992 150.962 12.9545 150.962C12.59 150.962 12.2718 151.036 12 151.185C11.7282 151.335 11.5194 151.545 11.3736 151.817C11.2277 152.089 11.1548 152.407 11.1548 152.771H9.68821C9.68821 152.152 9.83073 151.61 10.1158 151.146C10.4008 150.682 10.7919 150.322 11.2891 150.067C11.7862 149.808 12.3513 149.679 12.9844 149.679C13.6241 149.679 14.1875 149.807 14.6747 150.062C15.1652 150.314 15.5481 150.658 15.8232 151.096C16.0982 151.53 16.2358 152.021 16.2358 152.567C16.2358 152.945 16.1645 153.315 16.022 153.676C15.8828 154.037 15.6392 154.44 15.2912 154.884C14.9432 155.325 14.4593 155.86 13.8395 156.49L11.8161 158.608V158.683H16.3999V160H9.69815ZM21.8288 160.169C21.0433 160.166 20.3722 159.959 19.8153 159.548C19.2585 159.137 18.8326 158.538 18.5376 157.753C18.2427 156.967 18.0952 156.021 18.0952 154.914C18.0952 153.81 18.2427 152.867 18.5376 152.085C18.8359 151.303 19.2635 150.706 19.8203 150.295C20.3804 149.884 21.05 149.679 21.8288 149.679C22.6077 149.679 23.2756 149.886 23.8324 150.3C24.3892 150.711 24.8151 151.308 25.1101 152.09C25.4084 152.869 25.5575 153.81 25.5575 154.914C25.5575 156.024 25.41 156.972 25.1151 157.758C24.8201 158.54 24.3942 159.138 23.8374 159.553C23.2805 159.964 22.611 160.169 21.8288 160.169ZM21.8288 158.842C22.5182 158.842 23.0568 158.505 23.4446 157.832C23.8357 157.16 24.0312 156.187 24.0312 154.914C24.0312 154.069 23.9418 153.355 23.7628 152.771C23.5871 152.185 23.3336 151.741 23.0021 151.439C22.674 151.134 22.2829 150.982 21.8288 150.982C21.1428 150.982 20.6042 151.32 20.2131 151.996C19.822 152.672 19.6248 153.645 19.6214 154.914C19.6214 155.763 19.7093 156.48 19.8849 157.067C20.0639 157.65 20.3175 158.093 20.6456 158.394C20.9737 158.692 21.3681 158.842 21.8288 158.842ZM30.8659 160.169C30.0804 160.166 29.4093 159.959 28.8525 159.548C28.2956 159.137 27.8697 158.538 27.5748 157.753C27.2798 156.967 27.1323 156.021 27.1323 154.914C27.1323 153.81 27.2798 152.867 27.5748 152.085C27.873 151.303 28.3006 150.706 28.8574 150.295C29.4176 149.884 30.0871 149.679 30.8659 149.679C31.6448 149.679 32.3127 149.886 32.8695 150.3C33.4263 150.711 33.8522 151.308 34.1472 152.09C34.4455 152.869 34.5946 153.81 34.5946 154.914C34.5946 156.024 34.4471 156.972 34.1522 157.758C33.8572 158.54 33.4313 159.138 32.8745 159.553C32.3176 159.964 31.6481 160.169 30.8659 160.169ZM30.8659 158.842C31.5553 158.842 32.0939 158.505 32.4817 157.832C32.8728 157.16 33.0684 156.187 33.0684 154.914C33.0684 154.069 32.9789 153.355 32.7999 152.771C32.6242 152.185 32.3707 151.741 32.0392 151.439C31.7111 151.134 31.32 150.982 30.8659 150.982C30.1799 150.982 29.6413 151.32 29.2502 151.996C28.8591 152.672 28.6619 153.645 28.6586 154.914C28.6586 155.763 28.7464 156.48 28.9221 157.067C29.101 157.65 29.3546 158.093 29.6827 158.394C30.0108 158.692 30.4052 158.842 30.8659 158.842ZM39.9031 160.169C39.1175 160.166 38.4464 159.959 37.8896 159.548C37.3327 159.137 36.9068 158.538 36.6119 157.753C36.3169 156.967 36.1694 156.021 36.1694 154.914C36.1694 153.81 36.3169 152.867 36.6119 152.085C36.9102 151.303 37.3377 150.706 37.8945 150.295C38.4547 149.884 39.1242 149.679 39.9031 149.679C40.6819 149.679 41.3498 149.886 41.9066 150.3C42.4634 150.711 42.8893 151.308 43.1843 152.09C43.4826 152.869 43.6317 153.81 43.6317 154.914C43.6317 156.024 43.4843 156.972 43.1893 157.758C42.8943 158.54 42.4684 159.138 41.9116 159.553C41.3548 159.964 40.6853 160.169 39.9031 160.169ZM39.9031 158.842C40.5924 158.842 41.131 158.505 41.5188 157.832C41.9099 157.16 42.1055 156.187 42.1055 154.914C42.1055 154.069 42.016 153.355 41.837 152.771C41.6613 152.185 41.4078 151.741 41.0763 151.439C40.7482 151.134 40.3571 150.982 39.9031 150.982C39.217 150.982 38.6784 151.32 38.2873 151.996C37.8962 152.672 37.699 153.645 37.6957 154.914C37.6957 155.763 37.7835 156.48 37.9592 157.067C38.1381 157.65 38.3917 158.093 38.7198 158.394C39.0479 158.692 39.4424 158.842 39.9031 158.842Z" fill="#F9F9F9"/>
<path d="M13.5611 182.818V193H12.0199V184.359H11.9602L9.52415 185.95V184.479L12.0646 182.818H13.5611ZM19.6761 193.139C19.053 193.139 18.4929 193.02 17.9957 192.781C17.5019 192.539 17.1075 192.208 16.8125 191.787C16.5175 191.366 16.3601 190.885 16.3402 190.345H17.8317C17.8681 190.783 18.062 191.142 18.4134 191.424C18.7647 191.706 19.1856 191.847 19.6761 191.847C20.0672 191.847 20.4136 191.757 20.7152 191.578C21.0201 191.396 21.2588 191.146 21.4311 190.827C21.6068 190.509 21.6946 190.146 21.6946 189.739C21.6946 189.324 21.6051 188.955 21.4261 188.63C21.2472 188.305 21.0002 188.05 20.6854 187.864C20.3738 187.679 20.0159 187.584 19.6115 187.581C19.3033 187.581 18.9934 187.634 18.6818 187.74C18.3703 187.846 18.1184 187.985 17.9261 188.158L16.5192 187.949L17.0909 182.818H22.6889V184.136H18.3686L18.0455 186.984H18.1051C18.304 186.792 18.5675 186.631 18.8956 186.502C19.227 186.373 19.5817 186.308 19.9595 186.308C20.5793 186.308 21.1312 186.456 21.6151 186.751C22.1023 187.046 22.4851 187.448 22.7635 187.959C23.0452 188.466 23.1844 189.049 23.1811 189.709C23.1844 190.368 23.0353 190.957 22.7337 191.474C22.4354 191.991 22.0211 192.398 21.4908 192.697C20.9638 192.992 20.3589 193.139 19.6761 193.139ZM28.5417 193.169C27.7562 193.166 27.085 192.959 26.5282 192.548C25.9714 192.137 25.5455 191.538 25.2505 190.753C24.9556 189.967 24.8081 189.021 24.8081 187.914C24.8081 186.81 24.9556 185.867 25.2505 185.085C25.5488 184.303 25.9764 183.706 26.5332 183.295C27.0933 182.884 27.7628 182.679 28.5417 182.679C29.3206 182.679 29.9885 182.886 30.5453 183.3C31.1021 183.711 31.528 184.308 31.823 185.09C32.1213 185.869 32.2704 186.81 32.2704 187.914C32.2704 189.024 32.1229 189.972 31.8279 190.758C31.533 191.54 31.1071 192.138 30.5502 192.553C29.9934 192.964 29.3239 193.169 28.5417 193.169ZM28.5417 191.842C29.2311 191.842 29.7697 191.505 30.1575 190.832C30.5486 190.16 30.7441 189.187 30.7441 187.914C30.7441 187.069 30.6547 186.355 30.4757 185.771C30.3 185.185 30.0465 184.741 29.715 184.439C29.3869 184.134 28.9958 183.982 28.5417 183.982C27.8556 183.982 27.3171 184.32 26.926 184.996C26.5349 185.672 26.3377 186.645 26.3343 187.914C26.3343 188.763 26.4222 189.48 26.5978 190.067C26.7768 190.65 27.0304 191.093 27.3585 191.394C27.6866 191.692 28.081 191.842 28.5417 191.842ZM37.5788 193.169C36.7933 193.166 36.1222 192.959 35.5653 192.548C35.0085 192.137 34.5826 191.538 34.2876 190.753C33.9927 189.967 33.8452 189.021 33.8452 187.914C33.8452 186.81 33.9927 185.867 34.2876 185.085C34.5859 184.303 35.0135 183.706 35.5703 183.295C36.1304 182.884 36.8 182.679 37.5788 182.679C38.3577 182.679 39.0256 182.886 39.5824 183.3C40.1392 183.711 40.5651 184.308 40.8601 185.09C41.1584 185.869 41.3075 186.81 41.3075 187.914C41.3075 189.024 41.16 189.972 40.8651 190.758C40.5701 191.54 40.1442 192.138 39.5874 192.553C39.0305 192.964 38.361 193.169 37.5788 193.169ZM37.5788 191.842C38.2682 191.842 38.8068 191.505 39.1946 190.832C39.5857 190.16 39.7812 189.187 39.7812 187.914C39.7812 187.069 39.6918 186.355 39.5128 185.771C39.3371 185.185 39.0836 184.741 38.7521 184.439C38.424 184.134 38.0329 183.982 37.5788 183.982C36.8928 183.982 36.3542 184.32 35.9631 184.996C35.572 185.672 35.3748 186.645 35.3714 187.914C35.3714 188.763 35.4593 189.48 35.6349 190.067C35.8139 190.65 36.0675 191.093 36.3956 191.394C36.7237 191.692 37.1181 191.842 37.5788 191.842Z" fill="#F9F9F9"/>
<path d="M13.5611 215.818V226H12.0199V217.359H11.9602L9.52415 218.95V217.479L12.0646 215.818H13.5611ZM19.8601 226.169C19.0746 226.166 18.4034 225.959 17.8466 225.548C17.2898 225.137 16.8639 224.538 16.5689 223.753C16.2739 222.967 16.1264 222.021 16.1264 220.914C16.1264 219.81 16.2739 218.867 16.5689 218.085C16.8672 217.303 17.2947 216.706 17.8516 216.295C18.4117 215.884 19.0812 215.679 19.8601 215.679C20.639 215.679 21.3068 215.886 21.8636 216.3C22.4205 216.711 22.8464 217.308 23.1413 218.09C23.4396 218.869 23.5888 219.81 23.5888 220.914C23.5888 222.024 23.4413 222.972 23.1463 223.758C22.8513 224.54 22.4254 225.138 21.8686 225.553C21.3118 225.964 20.6423 226.169 19.8601 226.169ZM19.8601 224.842C20.5495 224.842 21.0881 224.505 21.4759 223.832C21.867 223.16 22.0625 222.187 22.0625 220.914C22.0625 220.069 21.973 219.355 21.794 218.771C21.6184 218.185 21.3648 217.741 21.0334 217.439C20.7053 217.134 20.3142 216.982 19.8601 216.982C19.174 216.982 18.6354 217.32 18.2443 217.996C17.8532 218.672 17.656 219.645 17.6527 220.914C17.6527 221.763 17.7405 222.48 17.9162 223.067C18.0952 223.65 18.3487 224.093 18.6768 224.394C19.005 224.692 19.3994 224.842 19.8601 224.842ZM28.8972 226.169C28.1117 226.166 27.4405 225.959 26.8837 225.548C26.3269 225.137 25.901 224.538 25.606 223.753C25.311 222.967 25.1635 222.021 25.1635 220.914C25.1635 219.81 25.311 218.867 25.606 218.085C25.9043 217.303 26.3319 216.706 26.8887 216.295C27.4488 215.884 28.1183 215.679 28.8972 215.679C29.6761 215.679 30.3439 215.886 30.9007 216.3C31.4576 216.711 31.8835 217.308 32.1784 218.09C32.4767 218.869 32.6259 219.81 32.6259 220.914C32.6259 222.024 32.4784 222.972 32.1834 223.758C31.8884 224.54 31.4625 225.138 30.9057 225.553C30.3489 225.964 29.6794 226.169 28.8972 226.169ZM28.8972 224.842C29.5866 224.842 30.1252 224.505 30.513 223.832C30.9041 223.16 31.0996 222.187 31.0996 220.914C31.0996 220.069 31.0101 219.355 30.8311 218.771C30.6555 218.185 30.4019 217.741 30.0705 217.439C29.7424 217.134 29.3513 216.982 28.8972 216.982C28.2111 216.982 27.6725 217.32 27.2814 217.996C26.8903 218.672 26.6931 219.645 26.6898 220.914C26.6898 221.763 26.7776 222.48 26.9533 223.067C27.1323 223.65 27.3858 224.093 27.714 224.394C28.0421 224.692 28.4365 224.842 28.8972 224.842ZM37.9343 226.169C37.1488 226.166 36.4776 225.959 35.9208 225.548C35.364 225.137 34.9381 224.538 34.6431 223.753C34.3481 222.967 34.2006 222.021 34.2006 220.914C34.2006 219.81 34.3481 218.867 34.6431 218.085C34.9414 217.303 35.369 216.706 35.9258 216.295C36.4859 215.884 37.1554 215.679 37.9343 215.679C38.7132 215.679 39.381 215.886 39.9379 216.3C40.4947 216.711 40.9206 217.308 41.2156 218.09C41.5138 218.869 41.663 219.81 41.663 220.914C41.663 222.024 41.5155 222.972 41.2205 223.758C40.9255 224.54 40.4996 225.138 39.9428 225.553C39.386 225.964 38.7165 226.169 37.9343 226.169ZM37.9343 224.842C38.6237 224.842 39.1623 224.505 39.5501 223.832C39.9412 223.16 40.1367 222.187 40.1367 220.914C40.1367 220.069 40.0472 219.355 39.8683 218.771C39.6926 218.185 39.439 217.741 39.1076 217.439C38.7795 217.134 38.3884 216.982 37.9343 216.982C37.2482 216.982 36.7096 217.32 36.3185 217.996C35.9274 218.672 35.7302 219.645 35.7269 220.914C35.7269 221.763 35.8147 222.48 35.9904 223.067C36.1694 223.65 36.4229 224.093 36.7511 224.394C37.0792 224.692 37.4736 224.842 37.9343 224.842Z" fill="#F9F9F9"/>
<path d="M13.0589 259.139C12.4358 259.139 11.8757 259.02 11.3786 258.781C10.8847 258.539 10.4903 258.208 10.1953 257.787C9.90033 257.366 9.7429 256.885 9.72301 256.345H11.2145C11.2509 256.783 11.4448 257.142 11.7962 257.424C12.1475 257.706 12.5684 257.847 13.0589 257.847C13.45 257.847 13.7964 257.757 14.098 257.578C14.4029 257.396 14.6416 257.146 14.8139 256.827C14.9896 256.509 15.0774 256.146 15.0774 255.739C15.0774 255.324 14.9879 254.955 14.8089 254.63C14.63 254.305 14.383 254.05 14.0682 253.864C13.7566 253.679 13.3987 253.584 12.9943 253.581C12.6861 253.581 12.3762 253.634 12.0646 253.74C11.7531 253.846 11.5012 253.985 11.3089 254.158L9.90199 253.949L10.4737 248.818H16.0717V250.136H11.7514L11.4283 252.984H11.4879C11.6868 252.792 11.9503 252.631 12.2784 252.502C12.6098 252.373 12.9645 252.308 13.3423 252.308C13.9621 252.308 14.514 252.456 14.9979 252.751C15.4851 253.046 15.8679 253.448 16.1463 253.959C16.428 254.466 16.5672 255.049 16.5639 255.709C16.5672 256.368 16.4181 256.957 16.1165 257.474C15.8182 257.991 15.4039 258.398 14.8736 258.697C14.3466 258.992 13.7417 259.139 13.0589 259.139ZM21.9245 259.169C21.139 259.166 20.4679 258.959 19.911 258.548C19.3542 258.137 18.9283 257.538 18.6333 256.753C18.3384 255.967 18.1909 255.021 18.1909 253.914C18.1909 252.81 18.3384 251.867 18.6333 251.085C18.9316 250.303 19.3592 249.706 19.916 249.295C20.4761 248.884 21.1457 248.679 21.9245 248.679C22.7034 248.679 23.3713 248.886 23.9281 249.3C24.4849 249.711 24.9108 250.308 25.2058 251.09C25.5041 251.869 25.6532 252.81 25.6532 253.914C25.6532 255.024 25.5057 255.972 25.2108 256.758C24.9158 257.54 24.4899 258.138 23.9331 258.553C23.3762 258.964 22.7067 259.169 21.9245 259.169ZM21.9245 257.842C22.6139 257.842 23.1525 257.505 23.5403 256.832C23.9314 256.16 24.127 255.187 24.127 253.914C24.127 253.069 24.0375 252.355 23.8585 251.771C23.6828 251.185 23.4293 250.741 23.0978 250.439C22.7697 250.134 22.3786 249.982 21.9245 249.982C21.2385 249.982 20.6999 250.32 20.3088 250.996C19.9177 251.672 19.7205 252.645 19.7172 253.914C19.7172 254.763 19.805 255.48 19.9806 256.067C20.1596 256.65 20.4132 257.093 20.7413 257.394C21.0694 257.692 21.4638 257.842 21.9245 257.842ZM30.9616 259.169C30.1761 259.166 29.505 258.959 28.9482 258.548C28.3913 258.137 27.9654 257.538 27.6705 256.753C27.3755 255.967 27.228 255.021 27.228 253.914C27.228 252.81 27.3755 251.867 27.6705 251.085C27.9688 250.303 28.3963 249.706 28.9531 249.295C29.5133 248.884 30.1828 248.679 30.9616 248.679C31.7405 248.679 32.4084 248.886 32.9652 249.3C33.522 249.711 33.9479 250.308 34.2429 251.09C34.5412 251.869 34.6903 252.81 34.6903 253.914C34.6903 255.024 34.5429 255.972 34.2479 256.758C33.9529 257.54 33.527 258.138 32.9702 258.553C32.4134 258.964 31.7438 259.169 30.9616 259.169ZM30.9616 257.842C31.651 257.842 32.1896 257.505 32.5774 256.832C32.9685 256.16 33.1641 255.187 33.1641 253.914C33.1641 253.069 33.0746 252.355 32.8956 251.771C32.7199 251.185 32.4664 250.741 32.1349 250.439C31.8068 250.134 31.4157 249.982 30.9616 249.982C30.2756 249.982 29.737 250.32 29.3459 250.996C28.9548 251.672 28.7576 252.645 28.7543 253.914C28.7543 254.763 28.8421 255.48 29.0178 256.067C29.1967 256.65 29.4503 257.093 29.7784 257.394C30.1065 257.692 30.5009 257.842 30.9616 257.842Z" fill="#F9F9F9"/>
<path d="M171.211 287.493C171.158 287.022 170.939 286.658 170.555 286.399C170.171 286.137 169.687 286.006 169.103 286.006C168.686 286.006 168.324 286.073 168.019 286.205C167.715 286.335 167.478 286.513 167.309 286.742C167.143 286.968 167.06 287.224 167.06 287.513C167.06 287.755 167.116 287.964 167.229 288.139C167.345 288.315 167.496 288.462 167.681 288.582C167.87 288.698 168.073 288.795 168.288 288.875C168.503 288.951 168.711 289.014 168.909 289.064L169.904 289.322C170.229 289.402 170.562 289.51 170.903 289.646C171.244 289.781 171.561 289.96 171.853 290.183C172.144 290.405 172.38 290.68 172.559 291.008C172.741 291.336 172.832 291.729 172.832 292.186C172.832 292.763 172.683 293.275 172.385 293.722C172.09 294.17 171.66 294.523 171.097 294.781C170.537 295.04 169.859 295.169 169.064 295.169C168.301 295.169 167.642 295.048 167.085 294.806C166.528 294.564 166.092 294.221 165.777 293.777C165.462 293.33 165.288 292.799 165.255 292.186H166.796C166.826 292.554 166.946 292.861 167.154 293.106C167.367 293.348 167.637 293.528 167.965 293.648C168.296 293.764 168.659 293.822 169.054 293.822C169.488 293.822 169.874 293.754 170.212 293.618C170.553 293.479 170.822 293.286 171.017 293.041C171.213 292.793 171.311 292.503 171.311 292.171C171.311 291.87 171.225 291.623 171.052 291.43C170.883 291.238 170.653 291.079 170.361 290.953C170.073 290.827 169.746 290.716 169.382 290.62L168.179 290.292C167.363 290.07 166.717 289.743 166.24 289.312C165.766 288.882 165.529 288.312 165.529 287.602C165.529 287.016 165.688 286.504 166.006 286.066C166.324 285.629 166.755 285.289 167.299 285.047C167.842 284.802 168.455 284.679 169.138 284.679C169.827 284.679 170.436 284.8 170.963 285.042C171.493 285.284 171.911 285.617 172.216 286.041C172.52 286.462 172.68 286.946 172.693 287.493H171.211ZM179.386 291.833V287.364H180.877V295H179.416V293.678H179.336C179.16 294.085 178.879 294.425 178.491 294.697C178.106 294.965 177.627 295.099 177.054 295.099C176.564 295.099 176.129 294.992 175.752 294.776C175.377 294.558 175.082 294.234 174.867 293.807C174.654 293.379 174.548 292.851 174.548 292.221V287.364H176.035V292.042C176.035 292.562 176.179 292.977 176.467 293.285C176.756 293.593 177.13 293.747 177.591 293.747C177.869 293.747 178.146 293.678 178.421 293.538C178.7 293.399 178.93 293.189 179.112 292.907C179.298 292.625 179.389 292.267 179.386 291.833ZM184.361 290.466V295H182.875V287.364H184.301V288.607H184.396C184.572 288.202 184.847 287.877 185.221 287.632C185.599 287.387 186.075 287.264 186.648 287.264C187.168 287.264 187.624 287.374 188.015 287.592C188.406 287.808 188.71 288.129 188.925 288.557C189.14 288.984 189.248 289.513 189.248 290.143V295H187.762V290.322C187.762 289.768 187.617 289.336 187.329 289.024C187.041 288.709 186.645 288.552 186.141 288.552C185.796 288.552 185.49 288.626 185.221 288.776C184.956 288.925 184.746 289.143 184.59 289.432C184.437 289.717 184.361 290.062 184.361 290.466ZM198.79 284.818V295H197.249V286.359H197.189L194.753 287.95V286.479L197.293 284.818H198.79ZM201.544 295V293.886L204.989 290.317C205.357 289.929 205.661 289.589 205.899 289.298C206.141 289.003 206.322 288.723 206.441 288.457C206.56 288.192 206.62 287.911 206.62 287.612C206.62 287.274 206.541 286.982 206.382 286.737C206.222 286.489 206.005 286.298 205.73 286.165C205.455 286.03 205.145 285.962 204.801 285.962C204.436 285.962 204.118 286.036 203.846 286.185C203.574 286.335 203.365 286.545 203.22 286.817C203.074 287.089 203.001 287.407 203.001 287.771H201.534C201.534 287.152 201.677 286.61 201.962 286.146C202.247 285.682 202.638 285.322 203.135 285.067C203.632 284.808 204.197 284.679 204.83 284.679C205.47 284.679 206.034 284.807 206.521 285.062C207.011 285.314 207.394 285.658 207.669 286.096C207.944 286.53 208.082 287.021 208.082 287.567C208.082 287.945 208.011 288.315 207.868 288.676C207.729 289.037 207.485 289.44 207.137 289.884C206.789 290.325 206.305 290.86 205.685 291.49L203.662 293.608V293.683H208.246V295H201.544Z" fill="#F9F9F9"/>
<path d="M372.567 284.818H374.432L377.673 292.733H377.792L381.034 284.818H382.898V295H381.437V287.632H381.342L378.339 294.985H377.126L374.123 287.627H374.029V295H372.567V284.818ZM388.229 295.154C387.513 295.154 386.888 294.99 386.355 294.662C385.821 294.334 385.407 293.875 385.112 293.285C384.817 292.695 384.669 292.005 384.669 291.217C384.669 290.424 384.817 289.732 385.112 289.138C385.407 288.545 385.821 288.085 386.355 287.756C386.888 287.428 387.513 287.264 388.229 287.264C388.945 287.264 389.57 287.428 390.103 287.756C390.637 288.085 391.051 288.545 391.346 289.138C391.641 289.732 391.789 290.424 391.789 291.217C391.789 292.005 391.641 292.695 391.346 293.285C391.051 293.875 390.637 294.334 390.103 294.662C389.57 294.99 388.945 295.154 388.229 295.154ZM388.234 293.906C388.698 293.906 389.082 293.784 389.387 293.538C389.692 293.293 389.918 292.967 390.063 292.559C390.213 292.151 390.287 291.702 390.287 291.212C390.287 290.724 390.213 290.277 390.063 289.869C389.918 289.458 389.692 289.129 389.387 288.88C389.082 288.631 388.698 288.507 388.234 288.507C387.767 288.507 387.379 288.631 387.071 288.88C386.766 289.129 386.539 289.458 386.389 289.869C386.244 290.277 386.171 290.724 386.171 291.212C386.171 291.702 386.244 292.151 386.389 292.559C386.539 292.967 386.766 293.293 387.071 293.538C387.379 293.784 387.767 293.906 388.234 293.906ZM394.934 290.466V295H393.448V287.364H394.875V288.607H394.969C395.145 288.202 395.42 287.877 395.794 287.632C396.172 287.387 396.648 287.264 397.221 287.264C397.742 287.264 398.197 287.374 398.589 287.592C398.98 287.808 399.283 288.129 399.498 288.557C399.714 288.984 399.821 289.513 399.821 290.143V295H398.335V290.322C398.335 289.768 398.191 289.336 397.902 289.024C397.614 288.709 397.218 288.552 396.714 288.552C396.37 288.552 396.063 288.626 395.794 288.776C395.529 288.925 395.319 289.143 395.163 289.432C395.011 289.717 394.934 290.062 394.934 290.466ZM409.363 284.818V295H407.822V286.359H407.762L405.326 287.95V286.479L407.867 284.818H409.363ZM415.662 295.139C414.979 295.139 414.37 295.022 413.833 294.786C413.299 294.551 412.876 294.224 412.565 293.807C412.257 293.386 412.091 292.899 412.068 292.345H413.629C413.649 292.647 413.75 292.909 413.932 293.131C414.118 293.349 414.36 293.518 414.658 293.638C414.956 293.757 415.288 293.817 415.652 293.817C416.053 293.817 416.408 293.747 416.716 293.608C417.028 293.469 417.271 293.275 417.447 293.026C417.623 292.774 417.711 292.484 417.711 292.156C417.711 291.815 417.623 291.515 417.447 291.256C417.275 290.995 417.021 290.789 416.686 290.64C416.355 290.491 415.954 290.416 415.483 290.416H414.623V289.163H415.483C415.861 289.163 416.193 289.095 416.478 288.96C416.766 288.824 416.991 288.635 417.154 288.393C417.316 288.147 417.397 287.861 417.397 287.533C417.397 287.218 417.326 286.944 417.184 286.712C417.044 286.477 416.845 286.293 416.587 286.161C416.332 286.028 416.03 285.962 415.682 285.962C415.351 285.962 415.041 286.023 414.752 286.146C414.467 286.265 414.235 286.437 414.056 286.663C413.877 286.885 413.781 287.152 413.768 287.463H412.282C412.298 286.913 412.461 286.429 412.769 286.011C413.08 285.594 413.491 285.267 414.002 285.032C414.512 284.797 415.079 284.679 415.702 284.679C416.355 284.679 416.918 284.807 417.392 285.062C417.87 285.314 418.237 285.65 418.496 286.071C418.758 286.492 418.887 286.953 418.884 287.453C418.887 288.023 418.728 288.507 418.407 288.905C418.088 289.303 417.664 289.569 417.134 289.705V289.785C417.81 289.888 418.334 290.156 418.705 290.59C419.079 291.024 419.265 291.563 419.262 292.206C419.265 292.766 419.109 293.268 418.794 293.712C418.483 294.156 418.057 294.506 417.517 294.761C416.976 295.013 416.358 295.139 415.662 295.139Z" fill="#F9F9F9"/>
<path d="M589.192 286.141V284.818H597.072V286.141H593.895V295H592.364V286.141H589.192ZM602.492 291.833V287.364H603.984V295H602.522V293.678H602.443C602.267 294.085 601.985 294.425 601.597 294.697C601.213 294.965 600.734 295.099 600.161 295.099C599.67 295.099 599.236 294.992 598.858 294.776C598.484 294.558 598.189 294.234 597.973 293.807C597.761 293.379 597.655 292.851 597.655 292.221V287.364H599.141V292.042C599.141 292.562 599.286 292.977 599.574 293.285C599.862 293.593 600.237 293.747 600.698 293.747C600.976 293.747 601.253 293.678 601.528 293.538C601.806 293.399 602.037 293.189 602.219 292.907C602.405 292.625 602.496 292.267 602.492 291.833ZM609.272 295.154C608.52 295.154 607.872 294.993 607.328 294.672C606.788 294.347 606.371 293.891 606.076 293.305C605.784 292.715 605.638 292.024 605.638 291.232C605.638 290.449 605.784 289.76 606.076 289.163C606.371 288.567 606.782 288.101 607.309 287.766C607.839 287.432 608.459 287.264 609.168 287.264C609.599 287.264 610.016 287.335 610.421 287.478C610.825 287.621 611.188 287.844 611.51 288.149C611.831 288.454 612.085 288.85 612.27 289.337C612.456 289.821 612.549 290.41 612.549 291.102V291.629H606.478V290.516H611.092C611.092 290.125 611.012 289.778 610.853 289.477C610.694 289.172 610.471 288.931 610.182 288.756C609.897 288.58 609.562 288.492 609.178 288.492C608.76 288.492 608.396 288.595 608.084 288.8C607.776 289.003 607.537 289.268 607.368 289.596C607.203 289.921 607.12 290.274 607.12 290.655V291.525C607.12 292.035 607.209 292.469 607.388 292.827C607.57 293.185 607.824 293.459 608.149 293.648C608.474 293.833 608.853 293.926 609.287 293.926C609.569 293.926 609.826 293.886 610.058 293.807C610.29 293.724 610.49 293.601 610.659 293.439C610.828 293.277 610.958 293.076 611.047 292.837L612.454 293.091C612.341 293.505 612.139 293.868 611.848 294.18C611.559 294.488 611.196 294.728 610.759 294.901C610.325 295.07 609.829 295.154 609.272 295.154ZM621.746 284.818V295H620.205V286.359H620.145L617.709 287.95V286.479L620.25 284.818H621.746ZM624.287 293.011V291.768L628.686 284.818H629.666V286.648H629.044L625.897 291.629V291.709H631.928V293.011H624.287ZM629.114 295V292.634L629.124 292.067V284.818H630.581V295H629.114Z" fill="#F9F9F9"/>
<path d="M798.597 295L795.773 284.818H797.389L799.373 292.703H799.467L801.53 284.818H803.131L805.194 292.708H805.289L807.268 284.818H808.888L806.059 295H804.513L802.371 287.374H802.291L800.148 295H798.597ZM812.709 295.154C811.957 295.154 811.309 294.993 810.765 294.672C810.225 294.347 809.807 293.891 809.512 293.305C809.221 292.715 809.075 292.024 809.075 291.232C809.075 290.449 809.221 289.76 809.512 289.163C809.807 288.567 810.218 288.101 810.745 287.766C811.275 287.432 811.895 287.264 812.605 287.264C813.035 287.264 813.453 287.335 813.857 287.478C814.262 287.621 814.625 287.844 814.946 288.149C815.268 288.454 815.521 288.85 815.707 289.337C815.892 289.821 815.985 290.41 815.985 291.102V291.629H809.915V290.516H814.529C814.529 290.125 814.449 289.778 814.29 289.477C814.131 289.172 813.907 288.931 813.619 288.756C813.334 288.58 812.999 288.492 812.614 288.492C812.197 288.492 811.832 288.595 811.521 288.8C811.212 289.003 810.974 289.268 810.805 289.596C810.639 289.921 810.556 290.274 810.556 290.655V291.525C810.556 292.035 810.646 292.469 810.825 292.827C811.007 293.185 811.261 293.459 811.585 293.648C811.91 293.833 812.29 293.926 812.724 293.926C813.006 293.926 813.262 293.886 813.494 293.807C813.726 293.724 813.927 293.601 814.096 293.439C814.265 293.277 814.394 293.076 814.484 292.837L815.891 293.091C815.778 293.505 815.576 293.868 815.284 294.18C814.996 294.488 814.633 294.728 814.195 294.901C813.761 295.07 813.266 295.154 812.709 295.154ZM820.493 295.149C819.877 295.149 819.327 294.992 818.843 294.677C818.362 294.359 817.984 293.906 817.709 293.32C817.437 292.73 817.301 292.022 817.301 291.197C817.301 290.371 817.439 289.665 817.714 289.079C817.992 288.492 818.374 288.043 818.858 287.732C819.341 287.42 819.89 287.264 820.503 287.264C820.977 287.264 821.358 287.344 821.647 287.503C821.938 287.659 822.164 287.841 822.323 288.05C822.485 288.259 822.611 288.442 822.701 288.602H822.79V284.818H824.277V295H822.825V293.812H822.701C822.611 293.974 822.482 294.16 822.313 294.369C822.147 294.577 821.918 294.76 821.627 294.915C821.335 295.071 820.957 295.149 820.493 295.149ZM820.821 293.881C821.249 293.881 821.61 293.769 821.905 293.543C822.203 293.315 822.429 292.998 822.581 292.594C822.737 292.189 822.815 291.719 822.815 291.182C822.815 290.652 822.739 290.187 822.586 289.79C822.434 289.392 822.21 289.082 821.915 288.86C821.62 288.638 821.256 288.527 820.821 288.527C820.374 288.527 820.001 288.643 819.703 288.875C819.404 289.107 819.179 289.424 819.027 289.825C818.877 290.226 818.803 290.678 818.803 291.182C818.803 291.692 818.879 292.151 819.032 292.559C819.184 292.967 819.409 293.29 819.708 293.528C820.009 293.764 820.381 293.881 820.821 293.881ZM833.946 284.818V295H832.405V286.359H832.345L829.909 287.95V286.479L832.45 284.818H833.946ZM840.061 295.139C839.438 295.139 838.878 295.02 838.381 294.781C837.887 294.539 837.493 294.208 837.198 293.787C836.903 293.366 836.745 292.885 836.725 292.345H838.217C838.253 292.783 838.447 293.142 838.799 293.424C839.15 293.706 839.571 293.847 840.061 293.847C840.452 293.847 840.799 293.757 841.1 293.578C841.405 293.396 841.644 293.146 841.816 292.827C841.992 292.509 842.08 292.146 842.08 291.739C842.08 291.324 841.99 290.955 841.811 290.63C841.632 290.305 841.385 290.05 841.071 289.864C840.759 289.679 840.401 289.584 839.997 289.581C839.689 289.581 839.379 289.634 839.067 289.74C838.756 289.846 838.504 289.985 838.311 290.158L836.904 289.949L837.476 284.818H843.074V286.136H838.754L838.431 288.984H838.49C838.689 288.792 838.953 288.631 839.281 288.502C839.612 288.373 839.967 288.308 840.345 288.308C840.965 288.308 841.516 288.456 842 288.751C842.488 289.046 842.87 289.448 843.149 289.959C843.43 290.466 843.57 291.049 843.566 291.709C843.57 292.368 843.421 292.957 843.119 293.474C842.821 293.991 842.406 294.398 841.876 294.697C841.349 294.992 840.744 295.139 840.061 295.139Z" fill="#F9F9F9"/>
<path d="M1013.23 286.141V284.818H1021.11V286.141H1017.93V295H1016.4V286.141H1013.23ZM1024.22 290.466V295H1022.73V284.818H1024.2V288.607H1024.29C1024.47 288.196 1024.74 287.869 1025.11 287.627C1025.48 287.385 1025.96 287.264 1026.55 287.264C1027.08 287.264 1027.53 287.372 1027.93 287.587C1028.32 287.803 1028.63 288.124 1028.84 288.552C1029.06 288.976 1029.17 289.506 1029.17 290.143V295H1027.68V290.322C1027.68 289.762 1027.54 289.327 1027.25 289.019C1026.96 288.708 1026.56 288.552 1026.05 288.552C1025.7 288.552 1025.38 288.626 1025.1 288.776C1024.83 288.925 1024.61 289.143 1024.45 289.432C1024.29 289.717 1024.22 290.062 1024.22 290.466ZM1035.99 291.833V287.364H1037.48V295H1036.02V293.678H1035.94C1035.76 294.085 1035.48 294.425 1035.09 294.697C1034.71 294.965 1034.23 295.099 1033.66 295.099C1033.17 295.099 1032.73 294.992 1032.36 294.776C1031.98 294.558 1031.69 294.234 1031.47 293.807C1031.26 293.379 1031.15 292.851 1031.15 292.221V287.364H1032.64V292.042C1032.64 292.562 1032.78 292.977 1033.07 293.285C1033.36 293.593 1033.73 293.747 1034.19 293.747C1034.47 293.747 1034.75 293.678 1035.03 293.538C1035.3 293.399 1035.53 293.189 1035.72 292.907C1035.9 292.625 1035.99 292.267 1035.99 291.833ZM1047.03 284.818V295H1045.49V286.359H1045.43L1042.99 287.95V286.479L1045.53 284.818H1047.03ZM1053.34 295.139C1052.88 295.133 1052.43 295.05 1051.99 294.891C1051.56 294.732 1051.16 294.466 1050.8 294.095C1050.44 293.724 1050.16 293.225 1049.94 292.599C1049.73 291.972 1049.62 291.19 1049.62 290.252C1049.62 289.364 1049.71 288.575 1049.89 287.886C1050.06 287.196 1050.32 286.615 1050.66 286.141C1050.99 285.663 1051.39 285.3 1051.87 285.052C1052.34 284.803 1052.87 284.679 1053.46 284.679C1054.07 284.679 1054.61 284.798 1055.08 285.037C1055.55 285.276 1055.93 285.605 1056.22 286.026C1056.52 286.447 1056.71 286.926 1056.79 287.463H1055.27C1055.17 287.039 1054.96 286.692 1054.66 286.424C1054.35 286.156 1053.96 286.021 1053.46 286.021C1052.72 286.021 1052.14 286.346 1051.72 286.996C1051.31 287.645 1051.1 288.549 1051.09 289.705H1051.17C1051.34 289.417 1051.56 289.172 1051.81 288.969C1052.07 288.764 1052.36 288.607 1052.68 288.497C1053 288.384 1053.34 288.328 1053.69 288.328C1054.28 288.328 1054.82 288.472 1055.29 288.761C1055.77 289.046 1056.16 289.44 1056.44 289.944C1056.73 290.448 1056.87 291.024 1056.87 291.674C1056.87 292.324 1056.72 292.912 1056.43 293.439C1056.14 293.966 1055.73 294.384 1055.19 294.692C1054.66 294.997 1054.04 295.146 1053.34 295.139ZM1053.33 293.847C1053.72 293.847 1054.07 293.75 1054.38 293.558C1054.69 293.366 1054.93 293.107 1055.11 292.783C1055.29 292.458 1055.38 292.095 1055.38 291.694C1055.38 291.303 1055.29 290.946 1055.12 290.625C1054.94 290.304 1054.7 290.048 1054.4 289.859C1054.1 289.67 1053.75 289.576 1053.37 289.576C1053.07 289.576 1052.8 289.632 1052.54 289.745C1052.3 289.858 1052.08 290.013 1051.89 290.212C1051.7 290.411 1051.55 290.64 1051.44 290.898C1051.34 291.154 1051.28 291.424 1051.28 291.709C1051.28 292.09 1051.37 292.443 1051.55 292.768C1051.72 293.093 1051.97 293.354 1052.28 293.553C1052.59 293.749 1052.94 293.847 1053.33 293.847Z" fill="#F9F9F9"/>
<path d="M1223.19 295V284.818H1229.51V286.141H1224.73V289.243H1229.06V290.56H1224.73V295H1223.19ZM1231.18 295V287.364H1232.62V288.577H1232.7C1232.84 288.166 1233.08 287.843 1233.43 287.607C1233.79 287.369 1234.19 287.249 1234.64 287.249C1234.73 287.249 1234.84 287.253 1234.97 287.259C1235.09 287.266 1235.2 287.274 1235.27 287.284V288.706C1235.21 288.689 1235.1 288.671 1234.95 288.651C1234.8 288.628 1234.65 288.616 1234.49 288.616C1234.14 288.616 1233.83 288.691 1233.55 288.84C1233.28 288.986 1233.07 289.19 1232.91 289.452C1232.75 289.71 1232.67 290.005 1232.67 290.337V295H1231.18ZM1236.56 295V287.364H1238.04V295H1236.56ZM1237.31 286.185C1237.05 286.185 1236.83 286.099 1236.64 285.927C1236.46 285.751 1236.37 285.542 1236.37 285.3C1236.37 285.055 1236.46 284.846 1236.64 284.674C1236.83 284.498 1237.05 284.411 1237.31 284.411C1237.56 284.411 1237.78 284.498 1237.97 284.674C1238.15 284.846 1238.25 285.055 1238.25 285.3C1238.25 285.542 1238.15 285.751 1237.97 285.927C1237.78 286.099 1237.56 286.185 1237.31 286.185ZM1247.59 284.818V295H1246.05V286.359H1245.99L1243.55 287.95V286.479L1246.09 284.818H1247.59ZM1250.69 295L1255.13 286.21V286.136H1249.99V284.818H1256.72V286.18L1252.29 295H1250.69Z" fill="#F9F9F9"/>
<path d="M1412.67 287.493C1412.61 287.022 1412.39 286.658 1412.01 286.399C1411.63 286.137 1411.14 286.006 1410.56 286.006C1410.14 286.006 1409.78 286.073 1409.47 286.205C1409.17 286.335 1408.93 286.513 1408.76 286.742C1408.6 286.968 1408.52 287.224 1408.52 287.513C1408.52 287.755 1408.57 287.964 1408.68 288.139C1408.8 288.315 1408.95 288.462 1409.14 288.582C1409.33 288.698 1409.53 288.795 1409.74 288.875C1409.96 288.951 1410.17 289.014 1410.36 289.064L1411.36 289.322C1411.68 289.402 1412.02 289.51 1412.36 289.646C1412.7 289.781 1413.02 289.96 1413.31 290.183C1413.6 290.405 1413.84 290.68 1414.01 291.008C1414.2 291.336 1414.29 291.729 1414.29 292.186C1414.29 292.763 1414.14 293.275 1413.84 293.722C1413.55 294.17 1413.12 294.523 1412.55 294.781C1411.99 295.04 1411.31 295.169 1410.52 295.169C1409.76 295.169 1409.1 295.048 1408.54 294.806C1407.98 294.564 1407.55 294.221 1407.23 293.777C1406.92 293.33 1406.74 292.799 1406.71 292.186H1408.25C1408.28 292.554 1408.4 292.861 1408.61 293.106C1408.82 293.348 1409.09 293.528 1409.42 293.648C1409.75 293.764 1410.11 293.822 1410.51 293.822C1410.94 293.822 1411.33 293.754 1411.67 293.618C1412.01 293.479 1412.28 293.286 1412.47 293.041C1412.67 292.793 1412.77 292.503 1412.77 292.171C1412.77 291.87 1412.68 291.623 1412.51 291.43C1412.34 291.238 1412.11 291.079 1411.82 290.953C1411.53 290.827 1411.2 290.716 1410.84 290.62L1409.63 290.292C1408.82 290.07 1408.17 289.743 1407.7 289.312C1407.22 288.882 1406.98 288.312 1406.98 287.602C1406.98 287.016 1407.14 286.504 1407.46 286.066C1407.78 285.629 1408.21 285.289 1408.75 285.047C1409.3 284.802 1409.91 284.679 1410.59 284.679C1411.28 284.679 1411.89 284.8 1412.42 285.042C1412.95 285.284 1413.37 285.617 1413.67 286.041C1413.98 286.462 1414.14 286.946 1414.15 287.493H1412.67ZM1418.23 295.169C1417.74 295.169 1417.3 295.08 1416.91 294.901C1416.52 294.718 1416.21 294.455 1415.98 294.11C1415.76 293.765 1415.65 293.343 1415.65 292.842C1415.65 292.411 1415.73 292.057 1415.89 291.778C1416.06 291.5 1416.28 291.28 1416.57 291.117C1416.85 290.955 1417.16 290.832 1417.51 290.749C1417.86 290.666 1418.21 290.603 1418.57 290.56C1419.03 290.507 1419.4 290.464 1419.69 290.431C1419.97 290.395 1420.18 290.337 1420.31 290.257C1420.44 290.178 1420.5 290.048 1420.5 289.869V289.835C1420.5 289.4 1420.38 289.064 1420.14 288.825C1419.89 288.587 1419.53 288.467 1419.05 288.467C1418.55 288.467 1418.16 288.578 1417.87 288.8C1417.58 289.019 1417.39 289.263 1417.28 289.531L1415.88 289.213C1416.05 288.749 1416.29 288.375 1416.61 288.089C1416.93 287.801 1417.3 287.592 1417.71 287.463C1418.13 287.33 1418.57 287.264 1419.03 287.264C1419.34 287.264 1419.66 287.301 1420 287.374C1420.35 287.443 1420.67 287.572 1420.97 287.761C1421.27 287.95 1421.51 288.22 1421.71 288.572C1421.9 288.92 1421.99 289.372 1421.99 289.929V295H1420.54V293.956H1420.48C1420.39 294.148 1420.24 294.337 1420.05 294.523C1419.86 294.708 1419.61 294.862 1419.31 294.985C1419.01 295.108 1418.65 295.169 1418.23 295.169ZM1418.55 293.976C1418.96 293.976 1419.31 293.895 1419.6 293.732C1419.9 293.57 1420.12 293.358 1420.27 293.096C1420.43 292.831 1420.51 292.547 1420.51 292.246V291.261C1420.46 291.314 1420.35 291.364 1420.2 291.411C1420.05 291.454 1419.88 291.492 1419.69 291.525C1419.5 291.555 1419.31 291.583 1419.13 291.609C1418.94 291.633 1418.79 291.652 1418.67 291.669C1418.38 291.705 1418.12 291.767 1417.88 291.853C1417.64 291.939 1417.45 292.063 1417.31 292.226C1417.17 292.385 1417.1 292.597 1417.1 292.862C1417.1 293.23 1417.24 293.509 1417.51 293.697C1417.78 293.883 1418.13 293.976 1418.55 293.976ZM1427.54 287.364V288.557H1423.37V287.364H1427.54ZM1424.49 285.534H1425.97V292.758C1425.97 293.046 1426.02 293.263 1426.1 293.409C1426.19 293.552 1426.3 293.649 1426.44 293.702C1426.57 293.752 1426.73 293.777 1426.89 293.777C1427.01 293.777 1427.11 293.769 1427.2 293.752C1427.29 293.736 1427.36 293.722 1427.41 293.712L1427.68 294.94C1427.59 294.973 1427.47 295.007 1427.31 295.04C1427.15 295.076 1426.95 295.096 1426.71 295.099C1426.32 295.106 1425.96 295.036 1425.62 294.891C1425.28 294.745 1425.01 294.519 1424.8 294.214C1424.59 293.91 1424.49 293.527 1424.49 293.066V285.534ZM1436.73 284.818V295H1435.19V286.359H1435.13L1432.69 287.95V286.479L1435.24 284.818H1436.73ZM1442.93 295.139C1442.21 295.139 1441.58 295.017 1441.04 294.771C1440.49 294.526 1440.07 294.188 1439.76 293.757C1439.45 293.326 1439.3 292.836 1439.3 292.286C1439.3 291.855 1439.39 291.459 1439.57 291.097C1439.75 290.733 1439.99 290.429 1440.31 290.188C1440.62 289.942 1440.97 289.786 1441.35 289.72V289.661C1440.84 289.538 1440.44 289.266 1440.13 288.845C1439.83 288.424 1439.68 287.94 1439.68 287.393C1439.68 286.873 1439.81 286.409 1440.09 286.001C1440.37 285.59 1440.76 285.267 1441.25 285.032C1441.74 284.797 1442.3 284.679 1442.93 284.679C1443.55 284.679 1444.1 284.798 1444.59 285.037C1445.08 285.272 1445.46 285.595 1445.75 286.006C1446.03 286.414 1446.17 286.876 1446.17 287.393C1446.17 287.94 1446.01 288.424 1445.71 288.845C1445.4 289.266 1445 289.538 1444.5 289.661V289.72C1444.88 289.786 1445.23 289.942 1445.53 290.188C1445.84 290.429 1446.08 290.733 1446.27 291.097C1446.45 291.459 1446.55 291.855 1446.55 292.286C1446.55 292.836 1446.39 293.326 1446.08 293.757C1445.78 294.188 1445.35 294.526 1444.8 294.771C1444.26 295.017 1443.63 295.139 1442.93 295.139ZM1442.93 293.881C1443.35 293.881 1443.71 293.812 1444.02 293.673C1444.33 293.53 1444.57 293.333 1444.74 293.081C1444.91 292.826 1444.99 292.527 1444.99 292.186C1444.99 291.831 1444.9 291.518 1444.72 291.246C1444.54 290.975 1444.29 290.761 1443.99 290.605C1443.68 290.449 1443.32 290.371 1442.93 290.371C1442.53 290.371 1442.17 290.449 1441.86 290.605C1441.55 290.761 1441.3 290.975 1441.12 291.246C1440.94 291.518 1440.85 291.831 1440.86 292.186C1440.85 292.527 1440.94 292.826 1441.1 293.081C1441.27 293.333 1441.51 293.53 1441.82 293.673C1442.13 293.812 1442.5 293.881 1442.93 293.881ZM1442.93 289.143C1443.26 289.143 1443.56 289.076 1443.83 288.94C1444.09 288.804 1444.29 288.615 1444.44 288.373C1444.6 288.131 1444.67 287.848 1444.68 287.523C1444.67 287.205 1444.6 286.926 1444.45 286.688C1444.3 286.449 1444.1 286.265 1443.84 286.136C1443.57 286.003 1443.27 285.937 1442.93 285.937C1442.58 285.937 1442.27 286.003 1442 286.136C1441.74 286.265 1441.54 286.449 1441.39 286.688C1441.24 286.926 1441.17 287.205 1441.18 287.523C1441.17 287.848 1441.25 288.131 1441.4 288.373C1441.54 288.615 1441.75 288.804 1442.01 288.94C1442.28 289.076 1442.58 289.143 1442.93 289.143Z" fill="#F9F9F9"/>
<rect opacity="0.2" x="0.25" y="-0.25" width="1348.24" height="0.5" transform="matrix(1 0 0 -1 164.539 253.5)" stroke="#F9F9F9" stroke-width="0.5" stroke-linecap="square" stroke-dasharray="3 3"/>
<rect opacity="0.2" x="0.25" y="-0.25" width="1348.24" height="0.5" transform="matrix(1 0 0 -1 164.539 220.5)" stroke="#F9F9F9" stroke-width="0.5" stroke-linecap="square" stroke-dasharray="3 3"/>
<rect opacity="0.2" x="0.25" y="-0.25" width="1348.24" height="0.5" transform="matrix(1 0 0 -1 164.539 187.5)" stroke="#F9F9F9" stroke-width="0.5" stroke-linecap="square" stroke-dasharray="3 3"/>
<rect opacity="0.2" x="0.25" y="-0.25" width="1348.24" height="0.5" transform="matrix(1 0 0 -1 164.539 154.5)" stroke="#F9F9F9" stroke-width="0.5" stroke-linecap="square" stroke-dasharray="3 3"/>
<rect opacity="0.2" x="0.25" y="-0.25" width="1348.24" height="0.5" transform="matrix(1 0 0 -1 164.539 121.5)" stroke="#F9F9F9" stroke-width="0.5" stroke-linecap="square" stroke-dasharray="3 3"/>
<rect opacity="0.2" x="0.25" y="-0.25" width="1348.24" height="0.5" transform="matrix(1 0 0 -1 164.539 88.5)" stroke="#F9F9F9" stroke-width="0.5" stroke-linecap="square" stroke-dasharray="3 3"/>
<path opacity="0.8" d="M197.747 195C197.747 183.954 206.701 175 217.747 175H228.836C239.881 175 248.836 183.954 248.836 195V254H197.747V195Z" fill="url(#paint1_linear_116_2441)"/>
<path d="M409.765 126C409.765 114.954 418.719 106 429.765 106H440.854C451.9 106 460.854 114.954 460.854 126V254H409.765V126Z" fill="url(#paint2_linear_116_2441)"/>
<path opacity="0.8" d="M621.783 157C621.783 145.954 630.738 137 641.783 137H652.872C663.918 137 672.872 145.954 672.872 157V254H621.783V157Z" fill="url(#paint3_linear_116_2441)"/>
<path opacity="0.8" d="M833.801 141C833.801 129.954 842.756 121 853.801 121H864.89C875.936 121 884.89 129.954 884.89 141V254H833.801V141Z" fill="url(#paint4_linear_116_2441)"/>
<path opacity="0.8" d="M1045.82 118C1045.82 106.954 1054.77 98 1065.82 98H1076.91C1087.95 98 1096.91 106.954 1096.91 118V254H1045.82V118Z" fill="url(#paint5_linear_116_2441)"/>
<path opacity="0.8" d="M1242.51 113C1242.51 101.954 1251.47 93 1262.51 93H1273.6C1284.65 93 1293.6 101.954 1293.6 113V254H1242.51V113Z" fill="url(#paint6_linear_116_2441)"/>
<path opacity="0.8" d="M1434.09 133C1434.09 121.954 1443.05 113 1454.09 113H1465.18C1476.23 113 1485.18 121.954 1485.18 133V254H1434.09V133Z" fill="url(#paint7_linear_116_2441)"/>
<rect x="1301.26" y="23" width="212.018" height="27" rx="10" fill="#F9F9F9"/>
<path d="M1380.88 42H1382.44L1384.58 34.3736H1384.66L1386.8 42H1388.35L1391.18 31.8182H1389.55L1387.58 39.7081H1387.48L1385.42 31.8182H1383.82L1381.75 39.7031H1381.66L1379.68 31.8182H1378.06L1380.88 42ZM1395 42.1541C1396.66 42.1541 1397.84 41.3338 1398.18 40.0909L1396.77 39.8374C1396.5 40.5582 1395.86 40.9261 1395.01 40.9261C1393.74 40.9261 1392.88 40.1009 1392.84 38.6293H1398.27V38.1023C1398.27 35.343 1396.62 34.2642 1394.89 34.2642C1392.76 34.2642 1391.36 35.8849 1391.36 38.2315C1391.36 40.603 1392.74 42.1541 1395 42.1541ZM1392.85 37.5156C1392.91 36.4318 1393.69 35.4922 1394.9 35.4922C1396.06 35.4922 1396.81 36.3473 1396.82 37.5156H1392.85ZM1403.21 42.1541C1404.88 42.1541 1406.06 41.3338 1406.39 40.0909L1404.99 39.8374C1404.72 40.5582 1404.07 40.9261 1403.23 40.9261C1401.96 40.9261 1401.1 40.1009 1401.06 38.6293H1406.49V38.1023C1406.49 35.343 1404.84 34.2642 1403.11 34.2642C1400.98 34.2642 1399.58 35.8849 1399.58 38.2315C1399.58 40.603 1400.96 42.1541 1403.21 42.1541ZM1401.07 37.5156C1401.12 36.4318 1401.91 35.4922 1403.12 35.4922C1404.27 35.4922 1405.03 36.3473 1405.03 37.5156H1401.07ZM1408.14 42H1409.63V39.2905L1410.37 38.5497L1412.96 42H1414.79L1411.48 37.6399L1414.58 34.3636H1412.8L1409.75 37.5952H1409.63V31.8182H1408.14V42Z" fill="#303030"/>
<rect width="10" height="5" transform="translate(1426.77 34)" fill="#F9F9F9"/>
<path d="M1436.77 34L1431.77 39L1426.77 34" stroke="#303030" stroke-width="2" stroke-linecap="round" stroke-linejoin="round"/>
<rect x="363.785" y="73" width="140.494" height="24" rx="10" fill="#F9F9F9"/>
<path d="M417.512 90.5H424.213V89.1825H419.63V89.108L421.653 86.9901C423.517 85.1058 424.049 84.206 424.049 83.0675C424.049 81.4318 422.717 80.179 420.798 80.179C418.894 80.179 417.502 81.4119 417.502 83.2713H418.968C418.963 82.1776 419.669 81.4616 420.768 81.4616C421.802 81.4616 422.588 82.098 422.588 83.1122C422.588 84.0121 422.051 84.6584 420.957 85.8168L417.512 89.3864V90.5ZM429.458 90.6392C431.507 90.6392 432.968 89.1925 432.963 87.2088C432.968 85.2401 431.596 83.8082 429.742 83.8082C428.986 83.8082 428.285 84.0966 427.887 84.4844H427.828L428.151 81.6357H432.471V80.3182H426.873L426.301 85.4489L427.708 85.6577C428.091 85.3146 428.777 85.081 429.394 85.081C430.602 85.0909 431.477 85.9957 431.477 87.2386C431.477 88.4616 430.627 89.3466 429.458 89.3466C428.474 89.3466 427.693 88.7202 427.614 87.8452H426.122C426.182 89.4659 427.589 90.6392 429.458 90.6392ZM438.14 90.6392C440.188 90.6392 441.65 89.1925 441.645 87.2088C441.65 85.2401 440.278 83.8082 438.423 83.8082C437.668 83.8082 436.967 84.0966 436.569 84.4844H436.509L436.833 81.6357H441.153V80.3182H435.555L434.983 85.4489L436.39 85.6577C436.773 85.3146 437.459 85.081 438.075 85.081C439.284 85.0909 440.159 85.9957 440.159 87.2386C440.159 88.4616 439.308 89.3466 438.14 89.3466C437.156 89.3466 436.375 88.7202 436.296 87.8452H434.804C434.864 89.4659 436.271 90.6392 438.14 90.6392ZM447.006 90.669C449.357 90.669 450.734 88.75 450.734 85.4141C450.734 82.103 449.337 80.179 447.006 80.179C444.669 80.179 443.277 82.098 443.272 85.4141C443.272 88.745 444.649 90.6641 447.006 90.669ZM447.006 89.3416C445.628 89.3416 444.798 87.9595 444.798 85.4141C444.803 82.8786 445.633 81.4815 447.006 81.4815C448.373 81.4815 449.208 82.8786 449.208 85.4141C449.208 87.9595 448.378 89.3416 447.006 89.3416Z" fill="#212121"/>
<path d="M433.076 99.8911C432.868 99.9617 432.642 99.9617 432.434 99.8911L423.013 96.6971C421.941 96.3338 422.202 94.75 423.334 94.75L442.176 94.75C443.308 94.75 443.569 96.3338 442.497 96.6971L433.076 99.8911Z" fill="#F9F9F9"/>
<rect x="404.656" y="31" width="25.5444" height="10" rx="1" fill="url(#paint8_linear_116_2441)"/>
<rect opacity="0.6" x="644.773" y="31" width="25.5444" height="10" rx="1" fill="#F9F9F9"/>
<rect opacity="0.6" x="928.316" y="31" width="25.5444" height="10" rx="1" fill="#F9F9F9"/>
<path d="M454.864 31.8182V42H453.452L448.277 34.5327H448.182V42H446.646V31.8182H448.068L453.248 39.2955H453.343V31.8182H454.864ZM460.277 42.1541C459.524 42.1541 458.876 41.9934 458.333 41.6719C457.793 41.3471 457.375 40.8913 457.08 40.3047C456.788 39.7147 456.642 39.0237 456.642 38.2315C456.642 37.4493 456.788 36.7599 457.08 36.1634C457.375 35.5668 457.786 35.1011 458.313 34.7663C458.843 34.4316 459.463 34.2642 460.172 34.2642C460.603 34.2642 461.021 34.3355 461.425 34.478C461.829 34.6205 462.192 34.8442 462.514 35.1491C462.835 35.4541 463.089 35.8501 463.275 36.3374C463.46 36.8213 463.553 37.4096 463.553 38.1023V38.6293H457.483V37.5156H462.096C462.096 37.1245 462.017 36.7782 461.858 36.4766C461.699 36.1716 461.475 35.9313 461.186 35.7557C460.901 35.58 460.567 35.4922 460.182 35.4922C459.765 35.4922 459.4 35.5949 459.088 35.8004C458.78 36.0026 458.542 36.2678 458.373 36.5959C458.207 36.9207 458.124 37.2737 458.124 37.6548V38.5249C458.124 39.0353 458.213 39.4695 458.392 39.8274C458.575 40.1854 458.828 40.4588 459.153 40.6477C459.478 40.8333 459.857 40.9261 460.292 40.9261C460.573 40.9261 460.83 40.8864 461.062 40.8068C461.294 40.724 461.495 40.6013 461.664 40.4389C461.833 40.2765 461.962 40.076 462.052 39.8374L463.458 40.0909C463.346 40.5052 463.144 40.8681 462.852 41.1797C462.564 41.4879 462.201 41.7282 461.763 41.9006C461.329 42.0696 460.833 42.1541 460.277 42.1541ZM466.844 42L464.597 34.3636H466.133L467.63 39.9716H467.704L469.206 34.3636H470.742L472.233 39.9467H472.308L473.794 34.3636H475.331L473.088 42H471.572L470.021 36.4865H469.907L468.356 42H466.844ZM481.456 31.8182L484.289 40.1108H484.404L487.238 31.8182H488.898L485.234 42H483.459L479.795 31.8182H481.456ZM490.249 42V34.3636H491.736V42H490.249ZM491 33.1854C490.741 33.1854 490.519 33.0992 490.334 32.9268C490.151 32.7512 490.06 32.5424 490.06 32.3004C490.06 32.0552 490.151 31.8464 490.334 31.674C490.519 31.4983 490.741 31.4105 491 31.4105C491.258 31.4105 491.479 31.4983 491.661 31.674C491.847 31.8464 491.94 32.0552 491.94 32.3004C491.94 32.5424 491.847 32.7512 491.661 32.9268C491.479 33.0992 491.258 33.1854 491 33.1854ZM499.458 36.228L498.11 36.4666C498.054 36.2943 497.965 36.1302 497.842 35.9744C497.723 35.8187 497.56 35.6911 497.355 35.5916C497.149 35.4922 496.892 35.4425 496.584 35.4425C496.163 35.4425 495.812 35.5369 495.53 35.7259C495.249 35.9115 495.108 36.1518 495.108 36.4467C495.108 36.7019 495.202 36.9074 495.391 37.0632C495.58 37.219 495.885 37.3466 496.306 37.446L497.519 37.7244C498.222 37.8868 498.745 38.1371 499.09 38.4751C499.435 38.8132 499.607 39.2524 499.607 39.7926C499.607 40.25 499.474 40.6577 499.209 41.0156C498.947 41.3703 498.581 41.6487 498.11 41.8509C497.643 42.053 497.101 42.1541 496.485 42.1541C495.63 42.1541 494.932 41.9718 494.392 41.6072C493.851 41.2393 493.52 40.7173 493.397 40.0412L494.834 39.8224C494.924 40.197 495.108 40.4804 495.386 40.6726C495.664 40.8615 496.027 40.956 496.475 40.956C496.962 40.956 497.351 40.8549 497.643 40.6527C497.935 40.4472 498.081 40.197 498.081 39.902C498.081 39.6634 497.991 39.4628 497.812 39.3004C497.637 39.138 497.366 39.0154 497.002 38.9325L495.709 38.6491C494.997 38.4867 494.47 38.2282 494.128 37.8736C493.79 37.5189 493.621 37.0698 493.621 36.5263C493.621 36.0755 493.747 35.6811 493.999 35.343C494.251 35.005 494.599 34.7415 495.043 34.5526C495.487 34.3603 495.996 34.2642 496.569 34.2642C497.395 34.2642 498.044 34.4432 498.518 34.8011C498.992 35.1558 499.305 35.6314 499.458 36.228ZM501.241 42V34.3636H502.728V42H501.241ZM501.992 33.1854C501.734 33.1854 501.511 33.0992 501.326 32.9268C501.144 32.7512 501.052 32.5424 501.052 32.3004C501.052 32.0552 501.144 31.8464 501.326 31.674C501.511 31.4983 501.734 31.4105 501.992 31.4105C502.251 31.4105 502.471 31.4983 502.653 31.674C502.839 31.8464 502.932 32.0552 502.932 32.3004C502.932 32.5424 502.839 32.7512 502.653 32.9268C502.471 33.0992 502.251 33.1854 501.992 33.1854ZM508.292 34.3636V35.5568H504.121V34.3636H508.292ZM505.24 32.5341H506.726V39.7578C506.726 40.0462 506.769 40.2633 506.856 40.4091C506.942 40.5516 507.053 40.6494 507.189 40.7024C507.328 40.7521 507.479 40.777 507.641 40.777C507.76 40.777 507.865 40.7687 507.954 40.7521C508.044 40.7356 508.113 40.7223 508.163 40.7124L508.432 41.9403C508.345 41.9735 508.223 42.0066 508.064 42.0398C507.905 42.0762 507.706 42.0961 507.467 42.0994C507.076 42.1061 506.711 42.0365 506.373 41.8906C506.035 41.7448 505.762 41.5194 505.553 41.2145C505.344 40.9096 505.24 40.5268 505.24 40.0661V32.5341Z" fill="#F9F9F9"/>
<path opacity="0.6" d="M693.31 31.8182H694.852V38.5149C694.852 39.2275 694.684 39.8589 694.349 40.4091C694.015 40.956 693.544 41.3868 692.937 41.7017C692.331 42.0133 691.62 42.169 690.805 42.169C689.993 42.169 689.283 42.0133 688.677 41.7017C688.07 41.3868 687.6 40.956 687.265 40.4091C686.93 39.8589 686.763 39.2275 686.763 38.5149V31.8182H688.299V38.3906C688.299 38.8513 688.4 39.2607 688.602 39.6186C688.808 39.9766 689.098 40.2583 689.472 40.4638C689.847 40.666 690.291 40.767 690.805 40.767C691.322 40.767 691.767 40.666 692.142 40.4638C692.52 40.2583 692.808 39.9766 693.007 39.6186C693.209 39.2607 693.31 38.8513 693.31 38.3906V31.8182ZM698.452 37.4659V42H696.966V34.3636H698.393V35.6065H698.487C698.663 35.2022 698.938 34.8774 699.312 34.6321C699.69 34.3868 700.166 34.2642 700.739 34.2642C701.259 34.2642 701.715 34.3736 702.106 34.5923C702.497 34.8078 702.801 35.1293 703.016 35.5568C703.232 35.9844 703.339 36.513 703.339 37.1428V42H701.853V37.3217C701.853 36.7682 701.709 36.3357 701.42 36.0241C701.132 35.7093 700.736 35.5518 700.232 35.5518C699.887 35.5518 699.581 35.6264 699.312 35.7756C699.047 35.9247 698.837 36.1435 698.681 36.4318C698.528 36.7169 698.452 37.0616 698.452 37.4659ZM705.333 42V34.3636H706.819V42H705.333ZM706.084 33.1854C705.825 33.1854 705.603 33.0992 705.417 32.9268C705.235 32.7512 705.144 32.5424 705.144 32.3004C705.144 32.0552 705.235 31.8464 705.417 31.674C705.603 31.4983 705.825 31.4105 706.084 31.4105C706.342 31.4105 706.563 31.4983 706.745 31.674C706.93 31.8464 707.023 32.0552 707.023 32.3004C707.023 32.5424 706.93 32.7512 706.745 32.9268C706.563 33.0992 706.342 33.1854 706.084 33.1854ZM713.975 44.8636V40.8118H713.885C713.796 40.9742 713.667 41.1598 713.497 41.3686C713.332 41.5774 713.103 41.7597 712.811 41.9155C712.52 42.0713 712.142 42.1491 711.678 42.1491C711.061 42.1491 710.511 41.9917 710.027 41.6768C709.547 41.3587 709.169 40.9062 708.894 40.3196C708.622 39.7296 708.486 39.022 708.486 38.1967C708.486 37.3714 708.624 36.6655 708.899 36.0788C709.177 35.4922 709.558 35.0431 710.042 34.7315C710.526 34.42 711.075 34.2642 711.688 34.2642C712.162 34.2642 712.543 34.3438 712.831 34.5028C713.123 34.6586 713.348 34.8409 713.507 35.0497C713.67 35.2585 713.796 35.4425 713.885 35.6016H714.01V34.3636H715.461V44.8636H713.975ZM712.006 40.8814C712.434 40.8814 712.795 40.7687 713.09 40.5433C713.388 40.3146 713.613 39.9981 713.766 39.5938C713.922 39.1894 714 38.7187 714 38.1818C714 37.6515 713.923 37.1875 713.771 36.7898C713.618 36.392 713.395 36.0821 713.1 35.8601C712.805 35.638 712.44 35.527 712.006 35.527C711.559 35.527 711.186 35.643 710.887 35.875C710.589 36.107 710.364 36.4235 710.211 36.8246C710.062 37.2256 709.988 37.678 709.988 38.1818C709.988 38.6922 710.064 39.1513 710.216 39.5589C710.369 39.9666 710.594 40.2898 710.892 40.5284C711.194 40.7637 711.565 40.8814 712.006 40.8814ZM722.297 38.8331V34.3636H723.789V42H722.327V40.6776H722.247C722.072 41.0852 721.79 41.425 721.402 41.6967C721.018 41.9652 720.539 42.0994 719.966 42.0994C719.475 42.0994 719.041 41.9917 718.663 41.7763C718.288 41.5575 717.993 41.2344 717.778 40.8068C717.566 40.3793 717.46 39.8506 717.46 39.2209V34.3636H718.946V39.0419C718.946 39.5623 719.091 39.9766 719.379 40.2848C719.667 40.593 720.042 40.7472 720.502 40.7472C720.781 40.7472 721.058 40.6776 721.333 40.5384C721.611 40.3991 721.841 40.1887 722.024 39.907C722.209 39.6252 722.301 39.2673 722.297 38.8331ZM729.077 42.1541C728.325 42.1541 727.677 41.9934 727.133 41.6719C726.593 41.3471 726.175 40.8913 725.88 40.3047C725.589 39.7147 725.443 39.0237 725.443 38.2315C725.443 37.4493 725.589 36.7599 725.88 36.1634C726.175 35.5668 726.586 35.1011 727.113 34.7663C727.644 34.4316 728.264 34.2642 728.973 34.2642C729.404 34.2642 729.821 34.3355 730.226 34.478C730.63 34.6205 730.993 34.8442 731.314 35.1491C731.636 35.4541 731.889 35.8501 732.075 36.3374C732.261 36.8213 732.353 37.4096 732.353 38.1023V38.6293H726.283V37.5156H730.897C730.897 37.1245 730.817 36.7782 730.658 36.4766C730.499 36.1716 730.275 35.9313 729.987 35.7557C729.702 35.58 729.367 35.4922 728.983 35.4922C728.565 35.4922 728.201 35.5949 727.889 35.8004C727.581 36.0026 727.342 36.2678 727.173 36.5959C727.007 36.9207 726.924 37.2737 726.924 37.6548V38.5249C726.924 39.0353 727.014 39.4695 727.193 39.8274C727.375 40.1854 727.629 40.4588 727.954 40.6477C728.278 40.8333 728.658 40.9261 729.092 40.9261C729.374 40.9261 729.631 40.8864 729.863 40.8068C730.095 40.724 730.295 40.6013 730.464 40.4389C730.633 40.2765 730.763 40.076 730.852 39.8374L732.259 40.0909C732.146 40.5052 731.944 40.8681 731.652 41.1797C731.364 41.4879 731.001 41.7282 730.564 41.9006C730.13 42.0696 729.634 42.1541 729.077 42.1541ZM738.717 31.8182L741.551 40.1108H741.665L744.499 31.8182H746.16L742.496 42H740.721L737.057 31.8182H738.717ZM747.511 42V34.3636H748.997V42H747.511ZM748.261 33.1854C748.003 33.1854 747.781 33.0992 747.595 32.9268C747.413 32.7512 747.322 32.5424 747.322 32.3004C747.322 32.0552 747.413 31.8464 747.595 31.674C747.781 31.4983 748.003 31.4105 748.261 31.4105C748.52 31.4105 748.74 31.4983 748.923 31.674C749.108 31.8464 749.201 32.0552 749.201 32.3004C749.201 32.5424 749.108 32.7512 748.923 32.9268C748.74 33.0992 748.52 33.1854 748.261 33.1854ZM756.719 36.228L755.372 36.4666C755.316 36.2943 755.226 36.1302 755.103 35.9744C754.984 35.8187 754.822 35.6911 754.616 35.5916C754.411 35.4922 754.154 35.4425 753.846 35.4425C753.425 35.4425 753.073 35.5369 752.792 35.7259C752.51 35.9115 752.369 36.1518 752.369 36.4467C752.369 36.7019 752.464 36.9074 752.652 37.0632C752.841 37.219 753.146 37.3466 753.567 37.446L754.78 37.7244C755.483 37.8868 756.007 38.1371 756.351 38.4751C756.696 38.8132 756.868 39.2524 756.868 39.7926C756.868 40.25 756.736 40.6577 756.471 41.0156C756.209 41.3703 755.843 41.6487 755.372 41.8509C754.905 42.053 754.363 42.1541 753.746 42.1541C752.891 42.1541 752.193 41.9718 751.653 41.6072C751.113 41.2393 750.782 40.7173 750.659 40.0412L752.096 39.8224C752.185 40.197 752.369 40.4804 752.648 40.6726C752.926 40.8615 753.289 40.956 753.736 40.956C754.224 40.956 754.613 40.8549 754.905 40.6527C755.196 40.4472 755.342 40.197 755.342 39.902C755.342 39.6634 755.253 39.4628 755.074 39.3004C754.898 39.138 754.628 39.0154 754.263 38.9325L752.971 38.6491C752.258 38.4867 751.731 38.2282 751.39 37.8736C751.052 37.5189 750.883 37.0698 750.883 36.5263C750.883 36.0755 751.009 35.6811 751.26 35.343C751.512 35.005 751.86 34.7415 752.304 34.5526C752.749 34.3603 753.257 34.2642 753.831 34.2642C754.656 34.2642 755.306 34.4432 755.78 34.8011C756.254 35.1558 756.567 35.6314 756.719 36.228ZM758.503 42V34.3636H759.989V42H758.503ZM759.254 33.1854C758.995 33.1854 758.773 33.0992 758.587 32.9268C758.405 32.7512 758.314 32.5424 758.314 32.3004C758.314 32.0552 758.405 31.8464 758.587 31.674C758.773 31.4983 758.995 31.4105 759.254 31.4105C759.512 31.4105 759.732 31.4983 759.915 31.674C760.1 31.8464 760.193 32.0552 760.193 32.3004C760.193 32.5424 760.1 32.7512 759.915 32.9268C759.732 33.0992 759.512 33.1854 759.254 33.1854ZM765.554 34.3636V35.5568H761.383V34.3636H765.554ZM762.501 32.5341H763.988V39.7578C763.988 40.0462 764.031 40.2633 764.117 40.4091C764.203 40.5516 764.314 40.6494 764.45 40.7024C764.589 40.7521 764.74 40.777 764.902 40.777C765.022 40.777 765.126 40.7687 765.216 40.7521C765.305 40.7356 765.375 40.7223 765.424 40.7124L765.693 41.9403C765.607 41.9735 765.484 42.0066 765.325 42.0398C765.166 42.0762 764.967 42.0961 764.728 42.0994C764.337 42.1061 763.973 42.0365 763.635 41.8906C763.297 41.7448 763.023 41.5194 762.814 41.2145C762.606 40.9096 762.501 40.5268 762.501 40.0661V32.5341Z" fill="#F9F9F9"/>
<path opacity="0.6" d="M979.15 36.9091C979.15 37.9962 978.951 38.9309 978.553 39.7131C978.155 40.492 977.61 41.0919 976.917 41.5128C976.228 41.9304 975.444 42.1392 974.566 42.1392C973.684 42.1392 972.897 41.9304 972.204 41.5128C971.515 41.0919 970.971 40.4903 970.574 39.7081C970.176 38.9259 969.977 37.9929 969.977 36.9091C969.977 35.822 970.176 34.889 970.574 34.1101C970.971 33.3279 971.515 32.728 972.204 32.3104C972.897 31.8894 973.684 31.679 974.566 31.679C975.444 31.679 976.228 31.8894 976.917 32.3104C977.61 32.728 978.155 33.3279 978.553 34.1101C978.951 34.889 979.15 35.822 979.15 36.9091ZM977.628 36.9091C977.628 36.0805 977.494 35.3828 977.226 34.8161C976.96 34.246 976.596 33.8151 976.132 33.5234C975.671 33.2285 975.149 33.081 974.566 33.081C973.979 33.081 973.455 33.2285 972.995 33.5234C972.534 33.8151 972.169 34.246 971.901 34.8161C971.636 35.3828 971.503 36.0805 971.503 36.9091C971.503 37.7377 971.636 38.437 971.901 39.0071C972.169 39.5739 972.534 40.0047 972.995 40.2997C973.455 40.5914 973.979 40.7372 974.566 40.7372C975.149 40.7372 975.671 40.5914 976.132 40.2997C976.596 40.0047 976.96 39.5739 977.226 39.0071C977.494 38.437 977.628 37.7377 977.628 36.9091ZM982.432 31.8182V42H980.946V31.8182H982.432ZM987.291 42.1491C986.674 42.1491 986.124 41.9917 985.64 41.6768C985.159 41.3587 984.782 40.9062 984.506 40.3196C984.235 39.7296 984.099 39.022 984.099 38.1967C984.099 37.3714 984.236 36.6655 984.511 36.0788C984.79 35.4922 985.171 35.0431 985.655 34.7315C986.139 34.42 986.687 34.2642 987.3 34.2642C987.774 34.2642 988.156 34.3438 988.444 34.5028C988.736 34.6586 988.961 34.8409 989.12 35.0497C989.282 35.2585 989.408 35.4425 989.498 35.6016H989.587V31.8182H991.074V42H989.622V40.8118H989.498C989.408 40.9742 989.279 41.1598 989.11 41.3686C988.944 41.5774 988.716 41.7597 988.424 41.9155C988.132 42.0713 987.755 42.1491 987.291 42.1491ZM987.619 40.8814C988.046 40.8814 988.407 40.7687 988.702 40.5433C989.001 40.3146 989.226 39.9981 989.379 39.5938C989.534 39.1894 989.612 38.7187 989.612 38.1818C989.612 37.6515 989.536 37.1875 989.384 36.7898C989.231 36.392 989.007 36.0821 988.712 35.8601C988.417 35.638 988.053 35.527 987.619 35.527C987.171 35.527 986.798 35.643 986.5 35.875C986.202 36.107 985.976 36.4235 985.824 36.8246C985.675 37.2256 985.6 37.678 985.6 38.1818C985.6 38.6922 985.676 39.1513 985.829 39.5589C985.981 39.9666 986.207 40.2898 986.505 40.5284C986.807 40.7637 987.178 40.8814 987.619 40.8814ZM997.91 31.8182L1000.74 40.1108H1000.86L1003.69 31.8182H1005.35L1001.69 42H999.913L996.249 31.8182H997.91ZM1006.7 42V34.3636H1008.19V42H1006.7ZM1007.45 33.1854C1007.2 33.1854 1006.97 33.0992 1006.79 32.9268C1006.61 32.7512 1006.51 32.5424 1006.51 32.3004C1006.51 32.0552 1006.61 31.8464 1006.79 31.674C1006.97 31.4983 1007.2 31.4105 1007.45 31.4105C1007.71 31.4105 1007.93 31.4983 1008.12 31.674C1008.3 31.8464 1008.39 32.0552 1008.39 32.3004C1008.39 32.5424 1008.3 32.7512 1008.12 32.9268C1007.93 33.0992 1007.71 33.1854 1007.45 33.1854ZM1015.91 36.228L1014.56 36.4666C1014.51 36.2943 1014.42 36.1302 1014.3 35.9744C1014.18 35.8187 1014.01 35.6911 1013.81 35.5916C1013.6 35.4922 1013.35 35.4425 1013.04 35.4425C1012.62 35.4425 1012.27 35.5369 1011.98 35.7259C1011.7 35.9115 1011.56 36.1518 1011.56 36.4467C1011.56 36.7019 1011.66 36.9074 1011.85 37.0632C1012.03 37.219 1012.34 37.3466 1012.76 37.446L1013.97 37.7244C1014.68 37.8868 1015.2 38.1371 1015.54 38.4751C1015.89 38.8132 1016.06 39.2524 1016.06 39.7926C1016.06 40.25 1015.93 40.6577 1015.66 41.0156C1015.4 41.3703 1015.04 41.6487 1014.56 41.8509C1014.1 42.053 1013.56 42.1541 1012.94 42.1541C1012.08 42.1541 1011.39 41.9718 1010.85 41.6072C1010.31 41.2393 1009.97 40.7173 1009.85 40.0412L1011.29 39.8224C1011.38 40.197 1011.56 40.4804 1011.84 40.6726C1012.12 40.8615 1012.48 40.956 1012.93 40.956C1013.42 40.956 1013.81 40.8549 1014.1 40.6527C1014.39 40.4472 1014.53 40.197 1014.53 39.902C1014.53 39.6634 1014.45 39.4628 1014.27 39.3004C1014.09 39.138 1013.82 39.0154 1013.46 38.9325L1012.16 38.6491C1011.45 38.4867 1010.92 38.2282 1010.58 37.8736C1010.24 37.5189 1010.08 37.0698 1010.08 36.5263C1010.08 36.0755 1010.2 35.6811 1010.45 35.343C1010.71 35.005 1011.05 34.7415 1011.5 34.5526C1011.94 34.3603 1012.45 34.2642 1013.02 34.2642C1013.85 34.2642 1014.5 34.4432 1014.97 34.8011C1015.45 35.1558 1015.76 35.6314 1015.91 36.228ZM1017.7 42V34.3636H1019.18V42H1017.7ZM1018.45 33.1854C1018.19 33.1854 1017.97 33.0992 1017.78 32.9268C1017.6 32.7512 1017.51 32.5424 1017.51 32.3004C1017.51 32.0552 1017.6 31.8464 1017.78 31.674C1017.97 31.4983 1018.19 31.4105 1018.45 31.4105C1018.7 31.4105 1018.93 31.4983 1019.11 31.674C1019.29 31.8464 1019.39 32.0552 1019.39 32.3004C1019.39 32.5424 1019.29 32.7512 1019.11 32.9268C1018.93 33.0992 1018.7 33.1854 1018.45 33.1854ZM1024.75 34.3636V35.5568H1020.58V34.3636H1024.75ZM1021.69 32.5341H1023.18V39.7578C1023.18 40.0462 1023.22 40.2633 1023.31 40.4091C1023.4 40.5516 1023.51 40.6494 1023.64 40.7024C1023.78 40.7521 1023.93 40.777 1024.1 40.777C1024.21 40.777 1024.32 40.7687 1024.41 40.7521C1024.5 40.7356 1024.57 40.7223 1024.62 40.7124L1024.89 41.9403C1024.8 41.9735 1024.68 42.0066 1024.52 42.0398C1024.36 42.0762 1024.16 42.0961 1023.92 42.0994C1023.53 42.1061 1023.17 42.0365 1022.83 41.8906C1022.49 41.7448 1022.22 41.5194 1022.01 41.2145C1021.8 40.9096 1021.69 40.5268 1021.69 40.0661V32.5341Z" fill="#F9F9F9"/>
<defs>
<linearGradient id="paint0_linear_116_2441" x1="421.811" y1="27.061" x2="503.724" y2="470.318" gradientUnits="userSpaceOnUse">
<stop stop-color="#060B28" stop-opacity="0.94"/>
<stop offset="1" stop-color="#0A0E23" stop-opacity="0.49"/>
<stop offset="1" stop-color="#0A0E23" stop-opacity="0.69"/>
</linearGradient>
<linearGradient id="paint1_linear_116_2441" x1="197.747" y1="214.5" x2="248.836" y2="214.5" gradientUnits="userSpaceOnUse">
<stop stop-color="#121241"/>
<stop offset="1" stop-color="#1517A0"/>
</linearGradient>
<linearGradient id="paint2_linear_116_2441" x1="409.765" y1="180" x2="460.854" y2="180" gradientUnits="userSpaceOnUse">
<stop stop-color="#121241"/>
<stop offset="1" stop-color="#1517A0"/>
</linearGradient>
<linearGradient id="paint3_linear_116_2441" x1="621.783" y1="195.5" x2="672.872" y2="195.5" gradientUnits="userSpaceOnUse">
<stop stop-color="#121241"/>
<stop offset="1" stop-color="#1517A0"/>
</linearGradient>
<linearGradient id="paint4_linear_116_2441" x1="833.801" y1="187.5" x2="884.89" y2="187.5" gradientUnits="userSpaceOnUse">
<stop stop-color="#121241"/>
<stop offset="1" stop-color="#1517A0"/>
</linearGradient>
<linearGradient id="paint5_linear_116_2441" x1="1045.82" y1="176" x2="1096.91" y2="176" gradientUnits="userSpaceOnUse">
<stop stop-color="#121241"/>
<stop offset="1" stop-color="#1517A0"/>
</linearGradient>
<linearGradient id="paint6_linear_116_2441" x1="1242.51" y1="173.5" x2="1293.6" y2="173.5" gradientUnits="userSpaceOnUse">
<stop stop-color="#121241"/>
<stop offset="1" stop-color="#1517A0"/>
</linearGradient>
<linearGradient id="paint7_linear_116_2441" x1="1434.09" y1="183.5" x2="1485.18" y2="183.5" gradientUnits="userSpaceOnUse">
<stop stop-color="#121241"/>
<stop offset="1" stop-color="#1517A0"/>
</linearGradient>
<linearGradient id="paint8_linear_116_2441" x1="404.656" y1="36" x2="430.201" y2="36" gradientUnits="userSpaceOnUse">
<stop stop-color="#121241"/>
<stop offset="1" stop-color="#1517A0"/>
</linearGradient>
</defs>
</svg>
