<svg width="15" height="15" viewBox="0 0 15 15" fill="none" xmlns="http://www.w3.org/2000/svg">
    <path
        d="M2.43655 4.4577L2.59614 6.43706C2.65702 7.21962 3.15662 7.94354 3.9913 8.46761C3.99505 8.47016 4.01378 8.48293 4.01771 8.48536L5.51343 9.4269C5.85491 9.64399 6.28126 9.78575 6.73753 9.8362C6.87034 9.85305 7.00708 9.86135 7.14251 9.86135C7.27588 9.86135 7.40795 9.85331 7.53438 9.83722C7.99968 9.78576 8.42622 9.64388 8.76621 9.4277L10.278 8.4753C11.1245 7.94354 11.6241 7.21963 11.6848 6.43759L11.8446 4.45761C11.8496 4.39682 11.8234 4.3377 11.7738 4.28815C12.5751 3.92279 13.165 3.35021 13.3607 2.66941L13.8998 0.794501C13.9306 0.687617 13.8657 0.578686 13.7348 0.51637C13.6039 0.453924 13.4312 0.450478 13.295 0.507048L10.6586 1.60181C10.202 1.79145 9.67786 1.89169 9.14308 1.89169L5.54471 1.89195C3.83037 1.89195 2.43579 2.84268 2.43579 4.01126V4.44249C2.43579 4.44517 2.43691 4.4476 2.43691 4.45028C2.4371 4.45283 2.43617 4.45526 2.43654 4.45768L2.43655 4.4577ZM10.8802 6.40819C10.8305 7.04668 10.4228 7.63745 9.71655 8.08195L8.218 9.02526C7.9936 9.1679 7.71262 9.26125 7.39604 9.29637C7.23101 9.31718 7.04931 9.31718 6.87531 9.29535C6.56792 9.26125 6.28678 9.1679 6.06106 9.02436L4.57546 8.08946C4.57172 8.08678 4.5528 8.07401 4.54868 8.07145C3.85767 7.63741 3.44987 7.04665 3.40024 6.4074L3.26406 4.71717H11.0167L10.8802 6.40819ZM3.24121 4.01127C3.24121 3.1456 4.27446 2.44107 5.54446 2.44107H9.14303C9.82559 2.44107 10.4947 2.31312 11.0777 2.07101L12.9332 1.30048L12.5698 2.56383C12.3025 3.49337 11.1001 4.16786 9.71079 4.16786L3.2414 4.16812L3.24121 4.01127Z"
        fill="#0075FF" />
    <path
        d="M0.402819 14.7469H13.8772C14.0003 14.7469 14.1168 14.7085 14.1932 14.6427C14.2695 14.5768 14.2976 14.4908 14.2691 14.409L13.4268 11.9835C13.1995 11.3293 12.6494 10.7382 11.878 10.3192L10.2405 9.4299C10.085 9.34549 9.8623 9.35086 9.71618 9.44293L8.21763 10.3862C7.99322 10.5289 7.71225 10.6222 7.39566 10.6573C7.23082 10.678 7.04912 10.678 6.87494 10.6563C6.56755 10.6222 6.2864 10.5289 6.06069 10.3853L4.56382 9.44292C4.41809 9.35097 4.19518 9.34561 4.0395 9.42989L2.40199 10.3192C1.63061 10.7383 1.08044 11.3293 0.853236 11.9835L0.0108861 14.409C-0.0175862 14.4908 0.0105115 14.5768 0.0867484 14.6427C0.163364 14.7085 0.279871 14.7469 0.402943 14.7469L0.402819 14.7469ZM1.63724 12.1102C1.82324 11.575 2.273 11.0917 2.90407 10.7489L4.27132 10.0063L5.51307 10.788C5.85455 11.0051 6.2809 11.1468 6.73718 11.1973C7.00073 11.2308 7.27948 11.2308 7.53402 11.1983C7.99931 11.1468 8.42585 11.0049 8.76584 10.7888L10.0091 10.0062L11.3763 10.7488C12.0072 11.0915 12.4572 11.5749 12.6432 12.1101L13.3681 14.1978H0.91218L1.63724 12.1102Z"
        fill="#0075FF" />
</svg>