<svg width="56" height="56" viewBox="0 0 56 56" fill="none" xmlns="http://www.w3.org/2000/svg">
<rect y="-0.000488281" width="56" height="56" rx="12" fill="#0075FF"/>
<path d="M36.0733 15.345C35.84 14.6567 35.1867 14.1667 34.4167 14.1667H21.5833C20.8133 14.1667 20.1717 14.6567 19.9267 15.345L17.5 22.3334V31.6667C17.5 32.3084 18.025 32.8334 18.6667 32.8334H19.8333C20.475 32.8334 21 32.3084 21 31.6667V30.5H35V31.6667C35 32.3084 35.525 32.8334 36.1667 32.8334H37.3333C37.975 32.8334 38.5 32.3084 38.5 31.6667V22.3334L36.0733 15.345ZM21.9917 16.5H33.9967L35.2567 20.1284H20.7317L21.9917 16.5ZM36.1667 28.1667H19.8333V22.3334H36.1667V28.1667Z" fill="white"/>
<path d="M22.75 27C23.7165 27 24.5 26.2165 24.5 25.25C24.5 24.2835 23.7165 23.5 22.75 23.5C21.7835 23.5 21 24.2835 21 25.25C21 26.2165 21.7835 27 22.75 27Z" fill="white"/>
<path d="M33.25 27C34.2165 27 35 26.2165 35 25.25C35 24.2835 34.2165 23.5 33.25 23.5C32.2835 23.5 31.5 24.2835 31.5 25.25C31.5 26.2165 32.2835 27 33.25 27Z" fill="white"/>
<path d="M22.1667 36.3334H26.8333V34L33.8333 37.5H29.1667V39.8334L22.1667 36.3334Z" fill="white"/>
</svg>
