<?xml version="1.0" encoding="iso-8859-1"?>
<!-- Generator: Adobe Illustrator 19.0.0, SVG Export Plug-In . SVG Version: 6.00 Build 0)  -->
<svg version="1.1" id="Layer_1" xmlns="http://www.w3.org/2000/svg" xmlns:xlink="http://www.w3.org/1999/xlink" x="0px" y="0px"
	 viewBox="0 0 512 512" style="enable-background:new 0 0 512 512;" xml:space="preserve">
<circle style="fill:#FFEDB5;" cx="256" cy="256" r="256"/>
<path style="fill:#FEE187;" d="M259.506,511.955C399.274,510.076,512,396.212,512,256c0-0.691-0.021-1.377-0.026-2.069
	l-92.596-92.596L198.663,249.23l-21.675-21.675l-83.458,46.17l89.028,89.028l-50.602,21.651L259.506,511.955z"/>
<path style="fill:#C92F00;" d="M197.72,261.696c0,0-7.218,86.618-65.765,122.708c0,0,55.827-19.151,65.765,30.477
	c0,0,53.736-36.893,40.101-146.768"/>
<path style="fill:#930000;" d="M314.28,261.696c0,0,7.218,86.618,65.765,122.708c0,0-55.827-19.151-65.765,30.477
	c0,0-53.736-36.893-40.102-146.768"/>
<path style="fill:#FF5419;" d="M90.633,172.832c0,0,22.145,46.356,2.898,100.893c0,0,25.664,40.903,151.581,0l-1.312-72.34
	L90.633,172.832z"/>
<g>
	<path style="fill:#C92F00;" d="M248.32,206.357c0,0-83.409-96.242-146.768-52.933S248.32,206.357,248.32,206.357z"/>
	<path style="fill:#C92F00;" d="M421.578,172.382c0,0-22.357,46.807-3.108,101.345c0,0-25.664,40.903-151.581,0l1.364-72.33
		L421.578,172.382z"/>
</g>
<path style="fill:#930000;" d="M263.68,206.357c0,0,83.409-96.242,146.768-52.933S263.68,206.357,263.68,206.357z"/>
<circle style="fill:#E09112;" cx="256" cy="239.244" r="44.908"/>
<path style="fill:#FF5419;" d="M256,194.327c24.805,0,44.913,20.108,44.913,44.913c0,24.805-20.108,44.913-44.913,44.913V194.327z"
	/>
<g>
</g>
<g>
</g>
<g>
</g>
<g>
</g>
<g>
</g>
<g>
</g>
<g>
</g>
<g>
</g>
<g>
</g>
<g>
</g>
<g>
</g>
<g>
</g>
<g>
</g>
<g>
</g>
<g>
</g>
</svg>
