<svg width="15" height="15" viewBox="0 0 15 15" fill="none" xmlns="http://www.w3.org/2000/svg">
<path d="M6.73968 1.64637C6.73968 1.43821 6.58614 1.2868 6.41546 1.2868C3.51491 1.2868 1.16028 3.89819 1.16028 7.11505C1.16028 7.32321 1.31381 7.47462 1.48449 7.47462C1.65516 7.47462 1.80871 7.30434 1.80871 7.11505C1.80871 4.3145 3.8733 2.0248 6.39846 2.0248C6.58615 2.00592 6.73968 1.85452 6.73968 1.64637Z" fill="#0075FF"/>
<path d="M7.79752 4.76937e-05H6.56903H6.39836C2.88353 4.76937e-05 0 3.17902 0 7.09612C0 11.0132 2.8664 14.2111 6.41542 14.2111H6.58609V14.23H7.81458C11.3465 14.23 14.23 11.032 14.23 7.115C14.213 3.17904 11.3464 0 7.79752 0V4.76937e-05ZM10.4764 12.5838C10.5958 12.4702 10.7152 12.3567 10.8347 12.2432H11.2271C11.0565 12.3757 10.8859 12.5081 10.7152 12.6216V12.5838L10.4764 12.5838ZM11.4318 11.5052C11.5342 11.3727 11.6195 11.2403 11.7048 11.1078H12.2849C12.1826 11.2403 12.0802 11.3916 11.9607 11.5052H11.4318ZM12.0972 10.3698C12.1654 10.2373 12.2167 10.1049 12.2679 9.97233H12.9503C12.8821 10.1049 12.8138 10.2372 12.7456 10.3698H12.0972ZM11.3295 2.08156C11.466 2.17621 11.5854 2.3086 11.7219 2.42211H11.2441C11.1418 2.30859 11.0564 2.17607 10.9541 2.08156H11.3295ZM12.3191 3.1601C12.4044 3.29262 12.5068 3.42501 12.5921 3.55755H11.9779C11.9097 3.42502 11.8243 3.29263 11.756 3.1601H12.3191ZM12.9674 4.29554C13.0185 4.42806 13.0869 4.56045 13.138 4.69299H12.4384C12.3873 4.56046 12.3531 4.42807 12.3019 4.29554H12.9674ZM12.5238 9.23441C12.5579 9.10188 12.592 8.9695 12.6261 8.83696H13.3427C13.3086 8.96949 13.2745 9.10187 13.2232 9.23441H12.5238ZM12.7626 8.11786C12.7797 7.98533 12.7968 7.85294 12.7968 7.72041H13.5304C13.5134 7.85293 13.4963 7.98532 13.4792 8.11786H12.7626ZM12.8138 6.98255C12.8138 6.85003 12.8138 6.71764 12.7968 6.58511H13.5304C13.5474 6.71763 13.5474 6.85002 13.5474 6.98255H12.8138ZM12.7115 5.84711C12.6944 5.71459 12.6603 5.5822 12.6433 5.44967H13.3599C13.394 5.58219 13.4281 5.71458 13.4452 5.84711H12.7115ZM0.665481 7.09606C0.665481 3.5764 3.24186 0.719049 6.41547 0.719049C9.58909 0.719049 12.1655 3.57637 12.1655 7.09606C12.1655 10.6157 9.58909 13.4731 6.41547 13.4731C3.24186 13.4731 0.665481 10.6157 0.665481 7.09606Z" fill="#0075FF"/>
<path d="M6.79087 5.31738C7.31977 5.31738 7.74632 5.56342 8.03638 6.0175L9.04303 4.9767C8.71881 4.48474 8.13873 3.99268 7.25146 3.84126V3.02765H5.9206V3.89817C4.53858 4.25774 3.61713 5.52554 3.61713 7.20967C3.61713 8.89381 4.53843 10.1806 5.9206 10.5212V11.3159H7.25146V10.5779C8.13873 10.4454 8.71881 9.95349 9.04303 9.4425L8.01935 8.38286C7.74633 8.81805 7.31977 9.08297 6.77383 9.08297C5.83538 9.08297 5.1871 8.3071 5.1871 7.19068C5.20412 6.05538 5.85241 5.31738 6.79087 5.31738Z" fill="#0075FF"/>
</svg>
