<svg width="39" height="29" viewBox="0 0 39 29" fill="none" xmlns="http://www.w3.org/2000/svg">
<path d="M19.4994 0.000863192C22.4915 0.000863192 25.4916 1.14741 27.7737 3.46113C29.5444 5.25655 30.5994 7.50311 30.9965 9.83206C35.5275 10.578 39 14.536 39 19.3336C39 24.6619 34.7214 29 29.4667 29H8.23333C3.6872 29 0 25.2615 0 20.6518C0 16.1642 3.50149 12.535 7.88125 12.3444C7.7546 9.1471 8.83706 5.89679 11.2394 3.46027C13.5198 1.14812 16.5077 0 19.4998 0L19.4994 0.000863192ZM19.4994 1.75822C16.9464 1.75822 14.4079 2.73286 12.4577 4.71031C10.2037 6.99579 9.26273 10.0993 9.61396 13.0719C9.6451 13.3235 9.56772 13.5763 9.40177 13.7654C9.23583 13.9548 8.99733 14.0624 8.74736 14.0606H8.2329C4.61689 14.0606 1.7329 16.9848 1.7329 20.6513C1.7329 24.3177 4.61689 27.242 8.2329 27.242H29.4662C33.7842 27.242 37.2662 23.7116 37.2662 19.3331C37.2662 15.199 34.1598 11.8178 30.1841 11.4518H30.1838C29.7757 11.4159 29.4481 11.095 29.3985 10.6828C29.1486 8.49907 28.2094 6.38769 26.5548 4.70997C24.6057 2.7337 22.0525 1.75789 19.4995 1.75789L19.4994 1.75822ZM19.4994 10.5458C19.9782 10.5458 20.366 10.9393 20.366 11.4245V20.8712L23.6837 17.8094C24.0201 17.498 24.6102 17.5219 24.916 17.8643C25.2219 18.2066 25.2044 18.7993 24.8483 19.1138L20.0815 23.5076C19.9576 23.6225 19.7309 23.7228 19.4994 23.7274C19.2693 23.7274 19.1079 23.6845 18.9172 23.5076L14.1504 19.1138C13.8112 18.8052 13.7489 18.2033 14.0827 17.8643C14.4046 17.5372 14.9786 17.498 15.315 17.8094L18.6327 20.8712V11.4245C18.6327 10.939 19.0205 10.5458 19.4993 10.5458H19.4994Z" fill="white"/>
</svg>
