<svg width="85" height="52" viewBox="0 0 85 52" fill="none" xmlns="http://www.w3.org/2000/svg">
<path d="M5.28378 30.8579C4.07973 28.0007 2.59291 28.1436 2 28.5721V51.8571H82.8632V11.1433C81.2213 11.6672 78.7165 13.4064 74.5169 11.1433C70.2753 8.8577 70.0017 12.1434 69.0439 16.7148C68.1746 20.8641 66.0338 17.2863 61.7922 22.0005C58.3822 25.7905 56.8118 10.2863 56.0456 6.28621C55.4983 3.42906 53.4459 2.71484 52.8986 6.28621C52.3514 11.1433 51.9956 20.6291 51.6672 22.0005C51.1541 24.1434 50.072 24.4024 49.2044 23.572C47.5625 22.0005 47.8361 16.4581 47.8361 12.572C47.8361 8.8577 45.7208 8.8577 45.3733 11.1433C44.0051 20.1434 43.8682 33.8488 41.5422 34.0006C39.7909 34.1148 39.2162 30.572 38.2584 27.1437C37.8992 25.8577 36.6166 24.9723 34.9747 27.1437C32.9223 29.858 32.2382 27.4294 32.1014 26.4291C31.9645 25.4287 31.2951 20.1583 31.1436 9.71526C31.0068 0.286704 27.6877 0.715185 27.4493 4.57226C26.6284 17.858 27.5959 35.8576 23.7551 35.8576C21.5659 35.8576 21.5659 31.1326 21.5659 27.2862C21.5659 24.1433 19.7872 23.8576 19.2399 26.4291C18.6926 29.0005 18.2821 32.0008 16.5034 32.0008C14.4329 32.0008 13.7669 28.2862 13.7669 25.4291C13.7669 22.5719 13.4918 19.1527 12.3986 19.0005C10.3463 18.7148 10.6199 28.8576 9.93581 32.0008C9.39343 34.4928 6.78885 34.4293 5.28378 30.8579Z" fill="url(#paint0_linear_7_476)"/>
<path d="M2 28.5721C2.59291 28.1436 4.07973 28.0007 5.28378 30.8579C6.78885 34.4293 9.39343 34.4928 9.93581 32.0008C10.6199 28.8576 10.3463 18.7148 12.3986 19.0005C13.4918 19.1527 13.7669 22.5719 13.7669 25.4291C13.7669 28.2862 14.4329 32.0008 16.5034 32.0008C18.2821 32.0008 18.6926 29.0005 19.2399 26.4291C19.7872 23.8576 21.5659 24.1433 21.5659 27.2862C21.5659 31.1326 21.5659 35.8576 23.7551 35.8576C27.5959 35.8576 26.6284 17.858 27.4493 4.57226C27.6877 0.715186 31.0068 0.286704 31.1436 9.71526C31.2951 20.1583 31.9645 25.4287 32.1014 26.4291C32.2382 27.4294 32.9223 29.858 34.9747 27.1437C36.6166 24.9723 37.8992 25.8577 38.2584 27.1437C39.2162 30.572 39.7909 34.1148 41.5422 34.0006C43.8682 33.8488 44.0051 20.1434 45.3733 11.1433C45.7208 8.8577 47.8361 8.8577 47.8361 12.572C47.8361 16.4581 47.5625 22.0005 49.2044 23.572C50.072 24.4024 51.1541 24.1434 51.6672 22.0005C51.9956 20.6291 52.3514 11.1433 52.8986 6.28621C53.4459 2.71484 55.4983 3.42906 56.0456 6.28621C56.8118 10.2863 58.3822 25.7905 61.7922 22.0005C66.0338 17.2863 68.1746 20.8641 69.0439 16.7148C70.0017 12.1434 70.2753 8.8577 74.5169 11.1433C78.7165 13.4064 81.2213 11.6672 82.8632 11.1433" stroke="url(#paint1_linear_7_476)" stroke-width="3" stroke-linecap="round" stroke-linejoin="round"/>
<defs>
<linearGradient id="paint0_linear_7_476" x1="42.4316" y1="2" x2="42.4316" y2="51.8571" gradientUnits="userSpaceOnUse">
<stop stop-color="#01B574" stop-opacity="0.14"/>
<stop offset="1" stop-color="#01B574" stop-opacity="0"/>
</linearGradient>
<linearGradient id="paint1_linear_7_476" x1="80.5372" y1="11.2857" x2="6.17829" y2="45.2003" gradientUnits="userSpaceOnUse">
<stop stop-color="#01B574"/>
<stop offset="1" stop-color="#01B574" stop-opacity="0"/>
</linearGradient>
</defs>
</svg>
