<svg width="100" height="124" viewBox="0 0 100 124" fill="none" xmlns="http://www.w3.org/2000/svg">
<rect width="100" height="100" rx="10" fill="white"/>
<path d="M76.0474 36.0947C70.6123 32.9511 63.6622 34.819 60.5212 40.2649L52.6038 54.0067C50.3128 57.975 53.2622 59.3616 56.5509 61.3373L64.1693 65.7428C66.7493 67.234 70.0447 66.3489 71.5327 63.7673L79.6721 49.6448C82.4062 44.8992 80.7839 38.8344 76.0474 36.0947Z" fill="#EA4335"/>
<path d="M67.0886 41.7826L59.4701 37.3769C55.2645 35.0377 52.8827 34.8829 51.1562 37.6327L39.9197 57.1301C36.7822 62.5723 38.6498 69.5326 44.0817 72.6693C48.8181 75.4089 54.8715 73.7834 57.6058 69.0378L69.0573 49.1635C70.552 46.5787 69.6686 43.2735 67.0886 41.7826Z" fill="#FBBC04"/>
<path d="M68.5551 31.7598L63.2039 28.663C57.2851 25.2403 49.7168 27.2698 46.3005 33.2L36.1121 50.8798C34.6073 53.4883 35.5008 56.8271 38.1043 58.3314L44.097 61.798C47.0563 63.5113 50.8387 62.4946 52.5487 59.5296L64.1881 39.3322C66.6 35.1488 71.9378 33.7151 76.1131 36.1316L68.5551 31.7598Z" fill="#34A853"/>
<path d="M47.7479 38.2588L41.9634 34.92C39.3836 33.4323 36.0882 34.314 34.6002 36.8923L27.6598 48.9077C24.2437 54.8211 26.2692 62.387 32.1881 65.8L36.5919 68.341L41.9332 71.4238L44.2511 72.7599C40.1361 70.0002 38.8293 64.4704 41.3452 60.1152L43.1425 57.0052L49.723 45.6125C51.2078 43.041 50.3244 39.7463 47.7479 38.2586V38.2588Z" fill="#4285F4"/>
<path d="M17.978 120.168C20.092 120.168 21.772 119.034 22.36 117.368V114.526H17.964V115.688H21.1V117.228C20.638 118.32 19.434 118.992 17.978 118.992C15.64 118.992 14.044 117.27 14.044 114.792C14.044 112.328 15.612 110.578 17.838 110.578C19.266 110.578 20.372 111.348 20.89 112.622L22.08 112.048C21.478 110.494 19.812 109.402 17.838 109.402C14.926 109.402 12.714 111.726 12.714 114.792C12.714 117.858 14.954 120.168 17.978 120.168ZM27.3319 120.168C29.4739 120.168 31.1539 118.53 31.1539 116.276C31.1539 114.022 29.4879 112.412 27.3319 112.412C25.1759 112.412 23.5099 114.022 23.5099 116.276C23.5099 118.53 25.1899 120.168 27.3319 120.168ZM27.3319 119.006C25.8899 119.006 24.7839 117.844 24.7839 116.29C24.7839 114.736 25.8899 113.574 27.3319 113.574C28.7739 113.574 29.8799 114.736 29.8799 116.29C29.8799 117.844 28.7739 119.006 27.3319 119.006ZM35.9862 120.168C38.1282 120.168 39.8082 118.53 39.8082 116.276C39.8082 114.022 38.1422 112.412 35.9862 112.412C33.8302 112.412 32.1642 114.022 32.1642 116.276C32.1642 118.53 33.8442 120.168 35.9862 120.168ZM35.9862 119.006C34.5442 119.006 33.4382 117.844 33.4382 116.29C33.4382 114.736 34.5442 113.574 35.9862 113.574C37.4282 113.574 38.5342 114.736 38.5342 116.29C38.5342 117.844 37.4282 119.006 35.9862 119.006ZM46.9645 112.58V113.602C46.4465 112.86 45.5365 112.412 44.4445 112.412C42.4285 112.412 40.8185 113.938 40.8185 116.01C40.8185 118.054 42.4425 119.622 44.4585 119.622C45.4945 119.622 46.3905 119.23 46.9365 118.544V119.692C46.9365 121.106 45.8305 121.918 44.5285 121.918C43.3805 121.918 42.6525 121.288 42.3585 120.574L41.2945 121.148C41.7705 122.268 42.9885 123.08 44.5565 123.08C46.6145 123.08 48.1405 121.652 48.1405 119.692V112.58H46.9645ZM44.5145 118.46C43.0865 118.46 42.0925 117.452 42.0925 116.01C42.0925 114.54 43.1425 113.574 44.5005 113.574C45.9145 113.574 46.9365 114.596 46.9365 116.01C46.9365 117.41 45.9565 118.46 44.5145 118.46ZM49.9885 120H51.1925V109.57H49.9885V120ZM59.6873 115.968C59.6873 114.078 58.3433 112.412 56.2293 112.412C54.1573 112.412 52.6173 114.036 52.6173 116.276C52.6173 118.516 54.1993 120.168 56.3273 120.168C57.8533 120.168 59.0573 119.342 59.5193 118.32L58.4693 117.76C58.0773 118.516 57.3913 119.076 56.3413 119.076C55.0393 119.076 53.9333 118.124 53.8773 116.654H59.6313C59.6733 116.416 59.6873 116.178 59.6873 115.968ZM53.9053 115.618C54.0733 114.274 55.0673 113.476 56.2293 113.476C57.3213 113.476 58.3433 114.386 58.3573 115.618H53.9053ZM67.2229 112.412C66.0749 112.412 65.0669 112.902 64.5629 113.714V112.58H63.3869V122.8H64.5909V118.978C65.1369 119.72 66.1029 120.168 67.1949 120.168C69.3089 120.168 70.9749 118.53 70.9749 116.276C70.9749 114.022 69.3089 112.412 67.2229 112.412ZM67.1529 119.006C65.6689 119.006 64.5909 117.858 64.5909 116.29C64.5909 114.722 65.6829 113.574 67.1529 113.574C68.6089 113.574 69.7009 114.722 69.7009 116.29C69.7009 117.858 68.6229 119.006 67.1529 119.006ZM75.2527 112.412C73.8807 112.412 72.6767 113.196 72.2567 114.204L73.3347 114.764C73.6567 114.036 74.3567 113.56 75.2527 113.56C76.2327 113.56 76.9327 114.12 76.9327 114.974V115.184L74.3567 115.758C72.8587 116.094 71.9767 116.85 71.9767 117.942C71.9767 119.244 73.0407 120.168 74.6227 120.168C75.5747 120.168 76.4567 119.706 76.9607 118.964V120H78.1367V114.974C78.1367 113.462 76.9467 112.412 75.2527 112.412ZM74.6927 119.09C73.8107 119.09 73.2507 118.642 73.2507 117.942C73.2507 117.34 73.7967 116.878 74.6367 116.696L76.9327 116.164V116.808C76.9327 118.11 75.9947 119.09 74.6927 119.09ZM84.9471 112.566L82.6651 118.306L80.3831 112.566H79.0111L81.9791 119.93L81.6571 120.7C81.4331 121.218 81.1531 121.89 80.0611 121.89C79.7671 121.89 79.4311 121.848 79.2911 121.806V122.884C79.5711 122.996 79.9351 123.038 80.2711 123.038C82.0071 123.038 82.5391 121.862 82.9171 120.924L86.3471 112.566H84.9471Z" fill="white"/>
</svg>
