<svg width="35" height="34" viewBox="0 0 35 34" fill="none" xmlns="http://www.w3.org/2000/svg">
<rect x="0.830139" y="0.0449219" width="33.2115" height="33.2115" rx="12" fill="white"/>
<path d="M17.4358 8.11053C12.721 8.11053 8.89575 11.9358 8.89575 16.6506C8.89575 21.3655 12.721 25.1907 17.4358 25.1907C22.1507 25.1907 25.9759 21.3655 25.9759 16.6506C25.9759 11.9358 22.1507 8.11053 17.4358 8.11053ZM17.169 21.6323C16.993 21.6323 16.821 21.5802 16.6747 21.4824C16.5284 21.3847 16.4144 21.2457 16.3471 21.0832C16.2798 20.9206 16.2621 20.7418 16.2965 20.5692C16.3308 20.3966 16.4155 20.2381 16.5399 20.1137C16.6643 19.9893 16.8228 19.9046 16.9954 19.8702C17.168 19.8359 17.3468 19.8535 17.5094 19.9209C17.6719 19.9882 17.8109 20.1022 17.9086 20.2485C18.0064 20.3948 18.0586 20.5668 18.0586 20.7427C18.0586 20.9787 17.9648 21.2049 17.798 21.3718C17.6312 21.5386 17.4049 21.6323 17.169 21.6323ZM18.6564 17.0954C17.9353 17.5793 17.8362 18.0228 17.8362 18.4298C17.8362 18.595 17.7705 18.7533 17.6538 18.8701C17.537 18.9869 17.3786 19.0525 17.2134 19.0525C17.0483 19.0525 16.8899 18.9869 16.7731 18.8701C16.6563 18.7533 16.5907 18.595 16.5907 18.4298C16.5907 17.4553 17.0391 16.6804 17.9616 16.0608C18.8192 15.4852 19.304 15.1205 19.304 14.3185C19.304 13.7732 18.9926 13.3591 18.3481 13.0527C18.1964 12.9806 17.8588 12.9103 17.4434 12.9152C16.9221 12.9219 16.5173 13.0464 16.2055 13.2973C15.6175 13.7706 15.5677 14.2856 15.5677 14.2932C15.5638 14.375 15.5437 14.4552 15.5088 14.5292C15.4739 14.6033 15.4247 14.6697 15.3641 14.7247C15.3035 14.7798 15.2326 14.8223 15.1555 14.85C15.0785 14.8776 14.9967 14.8898 14.915 14.8859C14.8332 14.8819 14.753 14.8619 14.6789 14.827C14.6049 14.7921 14.5385 14.7429 14.4834 14.6823C14.4284 14.6217 14.3858 14.5508 14.3582 14.4737C14.3305 14.3967 14.3183 14.3149 14.3223 14.2331C14.3272 14.1251 14.4023 13.1514 15.424 12.3294C15.9538 11.9033 16.6276 11.6818 17.4256 11.672C17.9905 11.6653 18.5211 11.761 18.881 11.9309C19.9578 12.4402 20.5494 13.2893 20.5494 14.3185C20.5494 15.8233 19.5437 16.4989 18.6564 17.0954Z" fill="#0075FF"/>
</svg>
