<svg width="55" height="60" viewBox="0 0 55 60" fill="none" xmlns="http://www.w3.org/2000/svg">
<rect x="55" width="60" height="55" rx="20" transform="rotate(90 55 0)" fill="url(#paint0_linear_1_654)"/>
<path d="M46.3599 26.22C46.3599 24.1471 44.9008 22.2602 42.8398 22.2602H28.3748L28.3751 22.2605C28.3567 22.2599 28.3383 22.2599 28.3199 22.2605H11.1599C9.09896 22.2605 7.63981 24.1474 7.63981 26.2203V36.7795C7.63981 38.8525 9.09888 40.7394 11.1599 40.7394H25.6115V40.7391C25.6342 40.74 25.6573 40.74 25.6803 40.7391H42.8403C44.9012 40.7391 46.3604 38.8521 46.3604 36.7792L46.3599 26.22ZM44.6001 26.22V36.7792C44.6001 38.0744 43.826 38.9792 42.8402 38.9792H30.7952C31.1049 38.455 31.309 37.8553 31.3728 37.2194H40.2003C41.6809 37.2194 42.8405 35.9901 42.8405 34.5795V28.4199C42.8405 27.0093 41.6809 25.7801 40.2003 25.7801H28.7603C27.2797 25.7801 26.1202 27.0093 26.1202 28.4199V34.5795C26.1202 35.1188 25.8317 35.4595 25.2403 35.4595H24.3603V26.2202C24.3603 24.9251 25.1344 24.0202 26.1202 24.0202H28.3202L28.3199 24.0205C28.3475 24.0218 28.3751 24.0218 28.4024 24.0205H42.8399C43.8261 24.0205 44.5998 24.9254 44.5998 26.2206L44.6001 26.22ZM41.08 28.42V34.5796C41.08 35.1189 40.7915 35.4595 40.2001 35.4595H31.4001V27.5403H40.2001C40.7915 27.5403 41.08 27.881 41.08 28.4202V28.42ZM29.64 27.5401V36.7793C29.64 38.0745 28.8659 38.9793 27.8801 38.9793H25.6801V38.979C25.6479 38.9775 25.616 38.9775 25.5838 38.979H11.1604C10.1743 38.979 9.40056 38.0742 9.40056 36.779V26.2198C9.40056 24.9246 10.1746 24.0198 11.1604 24.0198H23.1913C22.8816 24.544 22.6775 25.1437 22.6136 25.7796H13.7995C12.3189 25.7796 11.1593 27.0089 11.1593 28.4195V34.5791C11.1593 35.9897 12.3189 37.2189 13.7995 37.2189H25.2395C26.7201 37.2189 27.8796 35.9897 27.8796 34.5791V28.4192C27.8796 27.88 28.1682 27.5393 28.7596 27.5393H29.6395L29.64 27.5401ZM22.5998 27.5401V35.4593H13.7998C13.2084 35.4593 12.9199 35.1186 12.9199 34.5794V28.4198C12.9199 27.8805 13.2084 27.5398 13.7998 27.5398L22.5998 27.5401Z" fill="#0075FF"/>
<defs>
<linearGradient id="paint0_linear_1_654" x1="85" y1="0" x2="85" y2="55" gradientUnits="userSpaceOnUse">
<stop stop-color="#331A65"/>
<stop offset="1" stop-color="#412182" stop-opacity="0"/>
</linearGradient>
</defs>
</svg>
