<svg width="35" height="22" viewBox="0 0 35 22" fill="none" xmlns="http://www.w3.org/2000/svg">
<path d="M22.2097 2.311H12.7556V19.2985H22.2097V2.311Z" fill="#FF5F00"/>
<path d="M13.3558 10.8047C13.3558 7.35322 14.9766 4.29189 17.4677 2.31101C15.6369 0.870385 13.3258 0 10.8047 0C4.83213 0 0 4.83213 0 10.8047C0 16.7773 4.83213 21.6095 10.8047 21.6095C13.3258 21.6095 15.6369 20.7391 17.4677 19.2985C14.9766 17.3476 13.3558 14.2563 13.3558 10.8047Z" fill="#EB001B"/>
<path d="M34.9654 10.8047C34.9654 16.7773 30.1332 21.6095 24.1606 21.6095C21.6395 21.6095 19.3285 20.7391 17.4977 19.2985C20.0188 17.3176 21.6095 14.2563 21.6095 10.8047C21.6095 7.35322 19.9888 4.29189 17.4977 2.31101C19.3285 0.870385 21.6395 0 24.1606 0C30.1332 0 34.9654 4.86213 34.9654 10.8047Z" fill="#F79E1B"/>
</svg>
