<svg width="100" height="124" viewBox="0 0 100 124" fill="none" xmlns="http://www.w3.org/2000/svg">
<rect width="100" height="100" rx="10" fill="white"/>
<path d="M46.2625 45.7105H52.4063V55.4855C51.5688 55.9043 50.4521 56.0438 49.6146 56.0438C47.3813 56.0438 46.2625 54.9272 46.2625 52.4126V45.7105ZM74.3252 55.7438C71.1523 69.1793 57.6897 77.4981 44.2563 74.3252C30.8208 71.1543 22.502 57.6897 25.6749 44.2563C28.8479 30.8208 42.3104 22.502 55.7438 25.6749C69.1793 28.8479 77.4981 42.3104 74.3252 55.7438ZM61.3439 43.4771C61.3353 42.9985 61.1414 42.5419 60.8029 42.2035C60.4645 41.865 60.0079 41.6711 59.5293 41.6625H56.1772L48.498 32.8666C47.8 32.0291 46.6834 31.75 45.5667 32.0291L42.9125 32.8646C42.4938 33.0041 42.3542 33.5625 42.6334 33.8416L51.0105 41.8H38.3042C37.8854 41.8 37.6062 42.0792 37.6062 42.4979V43.8938C37.6062 44.8709 38.4437 45.7084 39.4208 45.7084H41.375V52.4105C41.375 57.4376 44.0271 60.3689 48.4959 60.3689C49.8917 60.3689 51.0084 60.2293 52.4063 59.6709V64.1397C52.4063 65.396 53.3834 66.3731 54.6397 66.3731H56.5938C56.8111 66.3584 57.0158 66.2655 57.1698 66.1115C57.3238 65.9575 57.4167 65.7529 57.4314 65.5356V45.5709H60.6439C61.0626 45.5709 61.3418 45.2917 61.3418 44.8729V43.4771H61.3439Z" fill="#6739B7"/>
<path d="M21.064 121H22.394V116.996H24.788C26.93 116.996 28.372 115.736 28.372 113.79C28.372 111.83 26.916 110.57 24.788 110.57H21.064V121ZM22.394 115.834V111.732H24.788C26.118 111.732 27 112.558 27 113.776C27 115.008 26.118 115.834 24.788 115.834H22.394ZM33.1834 113.412C32.2874 113.412 31.5174 113.776 31.0694 114.392V110.57H29.8654V121H31.0694V116.506C31.0694 115.344 31.8114 114.574 32.9174 114.574C34.0374 114.574 34.7514 115.344 34.7514 116.506V121H35.9554V116.128C35.9554 114.56 34.7934 113.412 33.1834 113.412ZM41.0604 121.168C43.2024 121.168 44.8824 119.53 44.8824 117.276C44.8824 115.022 43.2164 113.412 41.0604 113.412C38.9044 113.412 37.2384 115.022 37.2384 117.276C37.2384 119.53 38.9184 121.168 41.0604 121.168ZM41.0604 120.006C39.6184 120.006 38.5124 118.844 38.5124 117.29C38.5124 115.736 39.6184 114.574 41.0604 114.574C42.5024 114.574 43.6084 115.736 43.6084 117.29C43.6084 118.844 42.5024 120.006 41.0604 120.006ZM49.6307 113.412C48.7207 113.412 47.9227 113.79 47.4887 114.434V113.58H46.3127V121H47.5167V116.506C47.5167 115.344 48.2587 114.574 49.3647 114.574C50.4847 114.574 51.1987 115.33 51.1987 116.506V121H52.4027V116.114C52.4027 114.56 51.2407 113.412 49.6307 113.412ZM60.7556 116.968C60.7556 115.078 59.4116 113.412 57.2976 113.412C55.2256 113.412 53.6856 115.036 53.6856 117.276C53.6856 119.516 55.2676 121.168 57.3956 121.168C58.9216 121.168 60.1256 120.342 60.5876 119.32L59.5376 118.76C59.1456 119.516 58.4596 120.076 57.4096 120.076C56.1076 120.076 55.0016 119.124 54.9456 117.654H60.6996C60.7416 117.416 60.7556 117.178 60.7556 116.968ZM54.9736 116.618C55.1416 115.274 56.1356 114.476 57.2976 114.476C58.3896 114.476 59.4116 115.386 59.4256 116.618H54.9736ZM65.885 113.412C64.737 113.412 63.729 113.902 63.225 114.714V113.58H62.049V123.8H63.253V119.978C63.799 120.72 64.765 121.168 65.857 121.168C67.971 121.168 69.637 119.53 69.637 117.276C69.637 115.022 67.971 113.412 65.885 113.412ZM65.815 120.006C64.331 120.006 63.253 118.858 63.253 117.29C63.253 115.722 64.345 114.574 65.815 114.574C67.271 114.574 68.363 115.722 68.363 117.29C68.363 118.858 67.285 120.006 65.815 120.006ZM77.7088 116.968C77.7088 115.078 76.3648 113.412 74.2508 113.412C72.1788 113.412 70.6388 115.036 70.6388 117.276C70.6388 119.516 72.2208 121.168 74.3488 121.168C75.8748 121.168 77.0788 120.342 77.5408 119.32L76.4908 118.76C76.0988 119.516 75.4128 120.076 74.3628 120.076C73.0608 120.076 71.9548 119.124 71.8988 117.654H77.6528C77.6948 117.416 77.7088 117.178 77.7088 116.968ZM71.9268 116.618C72.0948 115.274 73.0888 114.476 74.2508 114.476C75.3428 114.476 76.3648 115.386 76.3788 116.618H71.9268Z" fill="white"/>
</svg>
