<svg width="15" height="15" viewBox="0 0 15 15" fill="none" xmlns="http://www.w3.org/2000/svg">
<path d="M9.364 1.91182C8.82302 1.32775 8.06742 1.0061 7.23343 1.0061C6.39499 1.0061 5.63689 1.3258 5.0984 1.90626C4.55408 2.49311 4.28888 3.29069 4.35115 4.15192C4.47458 5.85105 5.76754 7.23325 7.23343 7.23325C8.69931 7.23325 9.99005 5.85132 10.1154 4.15248C10.1785 3.29903 9.91166 2.50312 9.364 1.91182Z" fill="white"/>
<path d="M12.1262 13.4597H2.34068C2.2126 13.4614 2.08575 13.4345 1.96938 13.381C1.853 13.3275 1.75002 13.2487 1.66792 13.1503C1.48723 12.9343 1.41439 12.6394 1.46832 12.3411C1.70295 11.0395 2.4352 9.94613 3.58611 9.17858C4.60858 8.49721 5.90377 8.12219 7.23344 8.12219C8.5631 8.12219 9.85829 8.49749 10.8808 9.17858C12.0317 9.94586 12.7639 11.0392 12.9985 12.3408C13.0525 12.6391 12.9796 12.9341 12.7989 13.1501C12.7169 13.2484 12.6139 13.3273 12.4975 13.3809C12.3812 13.4344 12.2543 13.4614 12.1262 13.4597V13.4597Z" fill="white"/>
</svg>
