<svg width="12" height="12" viewBox="0 0 12 12" fill="none" xmlns="http://www.w3.org/2000/svg">
<g clip-path="url(#clip0_7_508)">
<path d="M10.8379 3.08686C10.8132 3.03872 10.7774 2.99711 10.7335 2.96541C10.6896 2.93371 10.6389 2.91282 10.5854 2.90444C10.5319 2.89607 10.4772 2.90044 10.4257 2.91721C10.3743 2.93397 10.3275 2.96266 10.2892 3.00092L8.96919 4.32178C8.9044 4.38564 8.81707 4.42144 8.7261 4.42144C8.63512 4.42144 8.5478 4.38564 8.483 4.32178L7.91238 3.7503C7.88045 3.71838 7.85512 3.68048 7.83784 3.63877C7.82056 3.59706 7.81167 3.55235 7.81167 3.5072C7.81167 3.46206 7.82056 3.41735 7.83784 3.37564C7.85512 3.33393 7.88045 3.29603 7.91238 3.26411L9.22679 1.94948C9.26619 1.91008 9.29543 1.8617 9.31198 1.80849C9.32853 1.75528 9.3319 1.69885 9.32179 1.64405C9.31168 1.58926 9.28841 1.53774 9.25397 1.49394C9.21953 1.45013 9.17496 1.41536 9.1241 1.39261C8.1313 0.948738 6.89209 1.18034 6.1107 1.95593C5.44683 2.61507 5.24896 3.64503 5.56822 4.78176C5.58543 4.84238 5.58553 4.90658 5.56851 4.96725C5.55148 5.02793 5.51799 5.0827 5.47176 5.12551L1.89504 8.39221C1.7557 8.51732 1.64331 8.6695 1.56472 8.83947C1.48613 9.00944 1.443 9.19364 1.43794 9.38084C1.43289 9.56803 1.46602 9.75429 1.53532 9.92826C1.60462 10.1022 1.70864 10.2602 1.84102 10.3927C1.97341 10.5251 2.13138 10.6292 2.30532 10.6986C2.47925 10.768 2.6655 10.8012 2.85269 10.7962C3.03989 10.7912 3.22411 10.7482 3.39412 10.6697C3.56412 10.5912 3.71635 10.4788 3.84152 10.3396L7.14324 6.75489C7.18543 6.70925 7.23929 6.67598 7.29899 6.65868C7.35869 6.64138 7.42198 6.6407 7.48205 6.6567C7.80568 6.74538 8.1395 6.79139 8.47505 6.79356C9.19263 6.79356 9.82234 6.56131 10.2765 6.11379C11.1176 5.28514 11.2459 3.87964 10.8379 3.08686ZM2.8874 10.1043C2.7459 10.1197 2.6031 10.0909 2.4787 10.0217C2.3543 9.95255 2.25444 9.84648 2.19289 9.71813C2.13135 9.58979 2.11115 9.44551 2.1351 9.3052C2.15905 9.16489 2.22595 9.03548 2.32658 8.93481C2.42721 8.83415 2.5566 8.7672 2.6969 8.7432C2.8372 8.71921 2.98149 8.73935 3.10985 8.80085C3.23822 8.86235 3.34433 8.96218 3.41354 9.08655C3.48276 9.21093 3.51166 9.35372 3.49627 9.49522C3.47933 9.65091 3.40974 9.79615 3.29902 9.90691C3.1883 10.0177 3.04309 10.0873 2.8874 10.1043Z" fill="white"/>
</g>
<defs>
<clipPath id="clip0_7_508">
<rect width="11" height="11" fill="white" transform="translate(0.749695 0.497192)"/>
</clipPath>
</defs>
</svg>
