<svg width="15" height="15" viewBox="0 0 15 15" fill="none" xmlns="http://www.w3.org/2000/svg">
<path d="M12.8899 8.76033V0.230175C12.8899 0.169138 12.8657 0.110566 12.8225 0.0674084C12.7793 0.0242513 12.7208 0 12.6597 0H0.230177C0.103067 0 0 0.103066 0 0.230175V12.6596C0 12.7207 0.0242509 12.7792 0.0674089 12.8224C0.110567 12.8656 0.169139 12.8898 0.230177 12.8898H8.7604C9.24685 13.6572 10.0555 14.1619 10.9586 14.2618C11.8616 14.3618 12.7611 14.046 13.4036 13.4036C14.046 12.7611 14.3618 11.8616 14.2618 10.9586C14.1619 10.0556 13.6572 9.24688 12.8898 8.76044L12.8899 8.76033ZM0.460354 12.4295V0.46035H12.4295V8.51648C12.2802 8.45534 12.1263 8.40612 11.9692 8.36913V1.15083C11.9692 1.0898 11.9449 1.03122 11.9018 0.988067C11.8586 0.94491 11.8001 0.920658 11.739 0.920658H1.15088C1.02377 0.920658 0.920707 1.02372 0.920707 1.15083V8.97679C0.920707 9.03782 0.944958 9.0964 0.988116 9.13955C1.03127 9.18271 1.08985 9.20696 1.15088 9.20696H9.12421C8.98785 9.34784 8.86608 9.50209 8.76045 9.66731H1.15094C1.02383 9.66731 0.92076 9.77038 0.92076 9.89749V11.7389C0.92076 11.7999 0.945011 11.8585 0.988169 11.9017C1.03133 11.9448 1.0899 11.9691 1.15094 11.9691H8.36928C8.40627 12.1262 8.45549 12.2801 8.51664 12.4294L0.460354 12.4295ZM11.5088 7.96169L8.9101 5.36071C8.86695 5.31715 8.80807 5.29259 8.74672 5.29259C8.68538 5.29259 8.6265 5.31714 8.58334 5.36071L7.13549 6.81082L5.22728 4.90036C5.18412 4.85679 5.12524 4.83224 5.0639 4.83224C5.00255 4.83224 4.94367 4.85679 4.90051 4.90036L1.38105 8.42217V1.38118H11.5088L11.5088 7.96169ZM5.06389 5.38825L8.4221 8.74644H1.70541L5.06389 5.38825ZM9.69058 8.74644H9.07136L7.46012 7.13522L8.74685 5.8485L11.189 8.28609C10.6574 8.30295 10.14 8.46191 9.69058 8.74644ZM8.36931 10.5878H1.61132V11.0482H8.29802V11.2784V11.5085H1.38114V10.1275H8.51662C8.45548 10.2768 8.40626 10.4307 8.36927 10.5878H8.36931ZM11.2787 13.8103C10.6072 13.8103 9.96324 13.5435 9.48839 13.0687C9.01354 12.5939 8.7468 11.9499 8.7468 11.2784C8.7468 10.6068 9.01357 9.96287 9.48839 9.48803C9.96324 9.01318 10.6072 8.74644 11.2787 8.74644C11.9503 8.74644 12.5942 9.01321 13.0691 9.48803C13.5439 9.96287 13.8107 10.6068 13.8107 11.2784C13.8107 11.9499 13.5439 12.5939 13.0691 13.0687C12.5942 13.5436 11.9503 13.8103 11.2787 13.8103Z" fill="#0075FF"/>
</svg>
