<svg width="12" height="12" viewBox="0 0 12 12" fill="none" xmlns="http://www.w3.org/2000/svg">
<g clip-path="url(#clip0_7_516)">
<path d="M6.91011 5.82514C6.92704 5.82515 6.9436 5.82017 6.9577 5.81081C6.97181 5.80144 6.98284 5.78812 6.9894 5.77252C6.99597 5.75691 6.99777 5.73972 6.9946 5.72309C6.99142 5.70646 6.98341 5.69114 6.97156 5.67905L5.28718 3.96631C5.27521 3.95416 5.2599 3.94584 5.24318 3.94242C5.22647 3.939 5.20912 3.94063 5.19334 3.9471C5.17755 3.95358 5.16406 3.9646 5.15456 3.97877C5.14506 3.99295 5.14 4.00962 5.14001 4.02668V5.56733C5.14001 5.6357 5.16718 5.70128 5.21553 5.74963C5.26388 5.79798 5.32945 5.82514 5.39783 5.82514H6.91011Z" fill="#2D3748"/>
<path d="M4.73181 6.23352C4.64357 6.14646 4.57345 6.04278 4.52551 5.92846C4.47757 5.81415 4.45276 5.69146 4.45251 5.5675V3.59094H2.90564C2.5413 3.59202 2.19219 3.73723 1.93456 3.99486C1.67693 4.25249 1.53172 4.6016 1.53064 4.96594V9.77844C1.53064 10.1431 1.67551 10.4929 1.93337 10.7507C2.19123 11.0086 2.54097 11.1534 2.90564 11.1534H5.99939C6.36406 11.1534 6.7138 11.0086 6.97166 10.7507C7.22952 10.4929 7.37439 10.1431 7.37439 9.77844V6.51282H5.39783C5.27386 6.51264 5.15115 6.48786 5.03683 6.43992C4.9225 6.39198 4.81883 6.32182 4.73181 6.23352Z" fill="white"/>
<path d="M8.49158 3.07496H10.0039C10.0208 3.07497 10.0373 3.06998 10.0515 3.06062C10.0656 3.05126 10.0766 3.03794 10.0832 3.02234C10.0897 3.00673 10.0915 2.98953 10.0883 2.9729C10.0852 2.95627 10.0772 2.94095 10.0653 2.92886L8.38093 1.21613C8.36896 1.20397 8.35365 1.19566 8.33693 1.19224C8.32022 1.18882 8.30287 1.19045 8.28709 1.19692C8.2713 1.20339 8.25781 1.21442 8.24831 1.22859C8.23881 1.24276 8.23375 1.25944 8.23376 1.2765V2.81714C8.23376 2.88552 8.26093 2.95109 8.30928 2.99944C8.35763 3.04779 8.4232 3.07496 8.49158 3.07496Z" fill="#2D3748"/>
<path d="M8.49152 3.76257C8.24139 3.76066 8.00206 3.66045 7.82519 3.48358C7.64832 3.30672 7.54811 3.06738 7.5462 2.81726V0.840698H5.22589C4.88413 0.841096 4.55649 0.977036 4.31483 1.2187C4.07317 1.46036 3.93723 1.788 3.93683 2.12976V2.9032H4.84175C4.95725 2.90366 5.07153 2.92694 5.17801 2.9717C5.28449 3.01646 5.38107 3.08182 5.46222 3.16402L7.80745 5.54878C7.97107 5.71479 8.06242 5.93875 8.06161 6.17183V9.0907H9.20136C9.89982 9.0907 10.4679 8.51234 10.4679 7.80163V3.76257H8.49152Z" fill="black"/>
</g>
<defs>
<clipPath id="clip0_7_516">
<rect width="11" height="11" fill="white" transform="translate(0.49939 0.497192)"/>
</clipPath>
</defs>
</svg>
