<svg width="45" height="15" viewBox="0 0 45 15" fill="none" xmlns="http://www.w3.org/2000/svg">
<path d="M16.1708 14.0162L18.3519 1.09604H21.8407L19.6579 14.0162H16.1708ZM32.2626 1.37456C31.5715 1.11281 30.4884 0.831909 29.1358 0.831909C25.6883 0.831909 23.2602 2.58428 23.2394 5.09577C23.2199 6.95229 24.973 7.98803 26.2964 8.60598C27.6545 9.23945 28.1109 9.64324 28.1044 10.2087C28.0957 11.0748 27.0199 11.4703 26.017 11.4703C24.6207 11.4703 23.8789 11.2744 22.7331 10.7922L22.2834 10.5869L21.7938 13.4792C22.6087 13.84 24.1155 14.1523 25.6802 14.1685C29.3476 14.1685 31.7284 12.4362 31.7555 9.75412C31.7685 8.2843 30.839 7.16593 28.8262 6.24371C27.6067 5.64602 26.8599 5.24718 26.8678 4.64196C26.8678 4.10492 27.5 3.53065 28.866 3.53065C30.0067 3.51276 30.8333 3.76389 31.4772 4.02565L31.7898 4.17474L32.2626 1.37456ZM41.2405 1.09584H38.5447C37.7096 1.09584 37.0846 1.32592 36.7179 2.16729L31.5365 14.0077H35.2C35.2 14.0077 35.7989 12.4157 35.9344 12.0661C36.3347 12.0661 39.8937 12.0716 40.4025 12.0716C40.5069 12.524 40.827 14.0077 40.827 14.0077H44.0643L41.2405 1.09545V1.09584ZM36.9633 9.4389C37.2519 8.69449 38.3533 5.82712 38.3533 5.82712C38.3328 5.86151 38.6398 5.07907 38.8159 4.59398L39.0517 5.70792C39.0517 5.70792 39.7197 8.79204 39.8593 9.43871H36.9633V9.4389ZM13.209 1.09584L9.79341 9.90685L9.42954 8.11633C8.79361 6.05225 6.81252 3.81597 4.59775 2.69641L7.72098 13.9956L11.4123 13.9915L16.9048 1.09571L13.209 1.09565" fill="#0E4595"/>
<path d="M6.60629 1.09534H0.980536L0.935944 1.36415C5.31272 2.43362 8.20867 5.01811 9.41109 8.12387L8.18781 2.18651C7.97668 1.36838 7.36416 1.12418 6.60642 1.09567" fill="#F2AE14"/>
</svg>
